<svg xmlns="http://www.w3.org/2000/svg" width="60" height="60"><g fill="#3b2314"><path d="M56.14 0H3.74A3.74 3.74 0 0 0 0 3.74v42.42a3.74 3.74 0 0 0 3.74 3.74h29.94v-2.5H3.74a1.25 1.25 0 0 1-1.25-1.24V3.74c0-.69.56-1.24 1.25-1.24h52.4c.69 0 1.25.55 1.25 1.24v42.42c0 .69-.56 1.25-1.25 1.25h-2.5v2.5h2.5a3.74 3.74 0 0 0 3.74-3.75V3.74A3.74 3.74 0 0 0 56.14 0z"/><path d="M52.4 12.48a4.99 4.99 0 0 1-5-5c0-.68-.55-1.24-1.24-1.24H13.72c-.69 0-1.24.56-1.24 1.25a4.99 4.99 0 0 1-5 4.99c-.68 0-1.24.56-1.24 1.24v22.46c0 .69.56 1.25 1.25 1.25a4.99 4.99 0 0 1 4.99 4.99c0 .69.55 1.25 1.24 1.25h16.22v-2.5H14.87a7.5 7.5 0 0 0-6.14-6.13V14.87a7.5 7.5 0 0 0 6.14-6.14h30.15a7.5 7.5 0 0 0 6.13 6.14v10.08h2.5V13.72c0-.69-.56-1.24-1.25-1.24z"/><path d="M43.66 26.2a11.23 11.23 0 1 0 0 22.46 11.23 11.23 0 0 0 0-22.46zm0 19.96a8.73 8.73 0 1 1 0-17.47 8.74 8.74 0 0 1 8.74 8.74 8.73 8.73 0 0 1-8.74 8.73z"/><path d="M48.66 44.91v11.13l-4.21-3.37a1.25 1.25 0 0 0-1.57 0l-4.2 3.37V44.91h-2.5v13.73a1.25 1.25 0 0 0 2.03.97l5.46-4.37 5.45 4.37a1.25 1.25 0 0 0 2.03-.97V44.9h-2.5zm-6.24-32.43H17.47c-.7 0-1.25.55-1.25 1.24v5c0 .68.56 1.24 1.25 1.24h24.95c.69 0 1.24-.56 1.24-1.25v-4.99c0-.69-.55-1.24-1.24-1.24zm-1.25 4.99H18.71v-2.5h22.46v2.5zm-26.2 6.23h2.5v2.5h-2.5zm5 0h2.49v2.5h-2.5zm-5 5h14.97v2.49H14.97zm28.7 2.49a6.24 6.24 0 0 0 0 12.47 6.25 6.25 0 0 0 6.23-6.23 6.24 6.24 0 0 0-6.24-6.24zm0 9.98a3.74 3.74 0 1 1 0-7.49 3.74 3.74 0 0 1 0 7.49zm-37.43 0h2.5v2.5h-2.5zM51.15 6.24h2.5v2.5h-2.5zm-44.91 0h2.5v2.5h-2.5z"/></g></svg>