<svg xmlns="http://www.w3.org/2000/svg" width="60" height="53"><g fill="#3b2314"><path d="M29.94 24.95h-5.99a1 1 0 0 0-.9 1.44l1.9 3.78v3.76a4.99 4.99 0 0 0 9.98 0v-4a5 5 0 0 0-5-4.98zm-4.38 2h4.38a3 3 0 0 1 2.82 1.99h-6.2l-1-2zm7.37 6.98a3 3 0 1 1-5.99 0v-3h6v3z"/><path d="M33.93 38.92h-7.98a5 5 0 0 0-5 4.99v6.98a1 1 0 0 0 1 1h15.97a1 1 0 0 0 1-1v-6.98a5 5 0 0 0-5-4.99zm3 10.98h-2v-3a1 1 0 0 0-2 0v3h-5.99v-3a1 1 0 0 0-2 0v3h-1.99V43.9a3 3 0 0 1 3-3h7.98a3 3 0 0 1 3 3v5.99zM10.97 24.95h-4a3 3 0 0 0-2.99 3v5.98a4.99 4.99 0 0 0 9.98 0v-5.99a3 3 0 0 0-3-3zm1 8.98a3 3 0 1 1-6 0v-3h6v3zm0-4.99h-6v-1a1 1 0 0 1 1-1h4a1 1 0 0 1 1 1v1z"/><path d="M12.97 38.92H5A5 5 0 0 0 0 43.91v6.98a1 1 0 0 0 1 1h15.96a1 1 0 0 0 1-1v-6.98a5 5 0 0 0-4.99-4.99zm3 10.98h-2v-3a1 1 0 0 0-2 0v3H6v-3a1 1 0 0 0-2 0v3H2V43.9a3 3 0 0 1 3-3h7.98a3 3 0 0 1 3 3v5.99zm43.8-18.4l-2.2-4.42a7.46 7.46 0 0 0-13.35 0l-2.2 4.41a1 1 0 0 0 .44 1.34l3.51 1.75a4.96 4.96 0 0 0 9.85 0l3.5-1.75a1 1 0 0 0 .45-1.34zm-5.88 2.43a3 3 0 1 1-5.99 0v-3h5.99v3zm2-1.61v-2.38a1 1 0 0 0-1-1H46.9a1 1 0 0 0-1 1v2.37l-1.65-.82 1.76-3.52a5.46 5.46 0 0 1 9.77 0l1.76 3.52-1.66.83z"/><path d="M54.89 38.92H46.9a5 5 0 0 0-4.99 4.99v6.98a1 1 0 0 0 1 1h15.97a1 1 0 0 0 1-1v-6.98a5 5 0 0 0-5-4.99zm2.99 10.98h-2v-3a1 1 0 0 0-2 0v3H47.9v-3a1 1 0 0 0-2 0v3h-1.99V43.9a3 3 0 0 1 3-3h7.98a3 3 0 0 1 2.99 3v5.99zM17.48 6.1A8.98 8.98 0 0 0 8.97 0a8.98 8.98 0 0 0-2.85 17.5l1.96 3.9a1 1 0 0 0 1.78 0l1.96-3.9A8.98 8.98 0 0 0 17.47 6.1zm-1.77 4.74a6.99 6.99 0 0 1-4.85 4.85 1 1 0 0 0-.63.52l-1.25 2.5-1.25-2.5a1 1 0 0 0-.63-.52 6.99 6.99 0 1 1 8.61-4.85zm22.72-4.74A8.98 8.98 0 0 0 29.93 0a8.98 8.98 0 0 0-2.84 17.5l1.95 3.9a1 1 0 0 0 1.8 0l1.95-3.9A8.98 8.98 0 0 0 38.43 6.1zm-1.76 4.74a6.99 6.99 0 0 1-4.85 4.85 1 1 0 0 0-.63.52l-1.25 2.5-1.26-2.5a1 1 0 0 0-.62-.52 6.99 6.99 0 1 1 8.6-4.85zm22.72-4.74A8.98 8.98 0 0 0 50.89 0a8.98 8.98 0 0 0-2.84 17.5L50 21.4a1 1 0 0 0 1.79 0l1.95-3.9A8.98 8.98 0 0 0 59.38 6.1zm-1.77 4.74a6.99 6.99 0 0 1-4.85 4.85 1 1 0 0 0-.62.52l-1.26 2.5-1.25-2.5a1 1 0 0 0-.62-.52 6.99 6.99 0 1 1 8.6-4.85z"/><path d="M55.1 5.78a3.19 3.19 0 0 0-4.2-.2 3.19 3.19 0 0 0-4.2.2 3.12 3.12 0 0 0 0 4.4l4.2 4.2 4.2-4.2a3.12 3.12 0 0 0 0-4.4zm-1.42 3l-2.79 2.78-2.78-2.78a1.12 1.12 0 1 1 1.58-1.59l1.2 1.2 1.2-1.2a1.12 1.12 0 1 1 1.6 1.59zM29.94 3.99a4.99 4.99 0 1 0 4.99 5 5 5 0 0 0-5-5zm-3 5a3 3 0 0 1 3-3c.44 0 .88.1 1.28.3l-3.98 3.97a2.94 2.94 0 0 1-.3-1.28zm3 2.98a2.94 2.94 0 0 1-1.29-.3l3.98-3.97c.2.4.3.84.3 1.28a3 3 0 0 1-3 3zM4.99 7.98h7.98v2H5z"/></g></svg>