<svg xmlns="http://www.w3.org/2000/svg" width="60" height="61"><g fill="#3b2314"><path d="M4.99 6.11h12.97v2H5zm0 4h12.97v2H5zm0 3.99h8.98v2H5zm0 3.99h8.98v2H5zM0 58h59.88v2H0zM57.77 8.66L53.78.68a1 1 0 0 0-1.34-.45l-7.98 4a1 1 0 0 0 .9 1.78l5.77-2.9-1.57 4.51A53.25 53.25 0 0 1 3.9 43.04l.17 2A55.25 55.25 0 0 0 51.44 8.27l1.61-4.6L56 9.55a1 1 0 0 0 1.78-.89zm-45.8 39.37H5a1 1 0 0 0-1 1V55a1 1 0 0 0 1 1h6.99a1 1 0 0 0 1-1v-5.99a1 1 0 0 0-1-1zm-1 5.98H6v-3.99h4.99v4zm11.98-8.98h-6.98a1 1 0 0 0-1 1v8.98a1 1 0 0 0 1 1h6.98a1 1 0 0 0 1-1v-8.98a1 1 0 0 0-1-1zm-1 8.98h-4.99v-6.98h5V54zm11.98-13.97h-6.99a1 1 0 0 0-1 1v13.97a1 1 0 0 0 1 1h6.99a1 1 0 0 0 1-1V41.04a1 1 0 0 0-1-1zm-1 13.97h-4.99V42.04h5V54z"/><path d="M44.9 33.06h-6.98a1 1 0 0 0-1 1V55a1 1 0 0 0 1 1h6.99a1 1 0 0 0 1-1V34.06a1 1 0 0 0-1-1zM43.9 54h-4.98V35.05h4.99v18.96zM55.89 19.1H48.9a1 1 0 0 0-1 1V55a1 1 0 0 0 1 1h6.98a1 1 0 0 0 1-1V20.08a1 1 0 0 0-1-1zm-1 34.92H49.9V21.08h4.99v32.93z"/></g></svg>