<svg xmlns="http://www.w3.org/2000/svg" width="39" height="60"><g fill="#3b2314"><path d="M38.172 53.48l-5.338-2.668v-1.398a.879.879 0 0 0-.879-.879h-3.004v-3.14c4.355-.442 7.766-4.13 7.766-8.6v-12.62c0-1.57-.765-2.965-1.941-3.833V4.762A4.767 4.767 0 0 0 30.014 0a4.767 4.767 0 0 0-4.762 4.762v7.957a4.739 4.739 0 0 0-3.004-1.07 4.77 4.77 0 0 0-4.509 3.234 4.743 4.743 0 0 0-3.257-1.293 4.74 4.74 0 0 0-3.004 1.07v-4.074a4.767 4.767 0 0 0-4.761-4.762 4.767 4.767 0 0 0-4.762 4.762v17.178a.879.879 0 1 0 1.758 0V10.586a3.007 3.007 0 0 1 3.004-3.004 3.007 3.007 0 0 1 3.004 3.004v13.59a4.758 4.758 0 1 0 8.645 2.751 4.75 4.75 0 0 0 3.883 2.01h4.944V31.1c-5.427.448-9.707 5.008-9.707 10.55a.879.879 0 1 0 1.758 0c0-4.868 3.96-8.829 8.828-8.829a.879.879 0 0 0 .88-.879v-3.004h.09a.879.879 0 1 0 0-1.757h-6.794a3.005 3.005 0 0 1-2.626-1.548l-.015-.025a2.986 2.986 0 0 1-.363-1.431v-.005a3.007 3.007 0 0 1 3.004-3h3.88l.003.001h5.824a3.007 3.007 0 0 1 3.004 3.004v12.619a6.894 6.894 0 0 1-6.887 6.887H25.16a.879.879 0 1 0 0 1.758h2.033v3.095H11.48V45.44h2.033a.879.879 0 1 0 0-1.758H10.6a6.895 6.895 0 0 1-6.887-6.887v-5.531a.879.879 0 1 0-1.758 0v5.531c0 4.47 3.41 8.158 7.766 8.6v3.14H6.717a.879.879 0 0 0-.879.88v1.397L.5 53.482a.88.88 0 0 0 0 1.572l5.338 2.668v1.4c0 .485.393.878.879.878h25.238a.879.879 0 0 0 .879-.879v-1.399l5.338-2.67a.88.88 0 0 0 0-1.572zM17.486 24.176a3.007 3.007 0 0 1-3.004 3.004 3.007 3.007 0 0 1-3.003-3.004v-5.824a3.007 3.007 0 0 1 3.004-3.004 3.007 3.007 0 0 1 3.003 3.004v5.824zm7.766-4.762h-3.004a4.74 4.74 0 0 0-3.004 1.07V16.41a3.007 3.007 0 0 1 3.004-3.004 3.007 3.007 0 0 1 3.004 3.004v3.004zm7.766.121a4.753 4.753 0 0 0-1.063-.12H27.01V4.762a3.007 3.007 0 0 1 3.004-3.004 3.007 3.007 0 0 1 3.004 3.004v14.773zM5.838 55.757l-2.98-1.49 2.98-1.49v2.98zm1.758 2.485v-7.949h23.48v7.95H7.596zm25.238-2.485v-2.98l2.98 1.49-2.98 1.49z"/><path d="M13.512 50.476c-2.09 0-3.791 1.7-3.791 3.791 0 2.09 1.7 3.791 3.79 3.791 2.091 0 3.792-1.7 3.792-3.79 0-2.091-1.7-3.792-3.791-3.792zm0 5.824a2.035 2.035 0 0 1-2.033-2.033c0-1.12.912-2.033 2.033-2.033 1.12 0 2.033.912 2.033 2.033a2.036 2.036 0 0 1-2.033 2.033zm11.648-5.824c-2.09 0-3.79 1.7-3.79 3.791 0 2.09 1.7 3.791 3.79 3.791s3.791-1.7 3.791-3.79c0-2.091-1.7-3.792-3.79-3.792zm0 5.824a2.035 2.035 0 0 1-2.033-2.033c0-1.12.912-2.033 2.033-2.033s2.033.912 2.033 2.033A2.035 2.035 0 0 1 25.16 56.3z"/></g></svg>