<svg xmlns="http://www.w3.org/2000/svg" width="60" height="60"><g fill="#3b2314"><path d="M57.17 25.68a6.87 6.87 0 0 1-2.05-2.4 7.06 7.06 0 0 1 .57-3.25c.56-1.75 1.14-3.56.3-5.03-.87-1.49-2.75-1.9-4.56-2.29a6.96 6.96 0 0 1-3.04-1.1 6.96 6.96 0 0 1-1.1-3.04c-.4-1.81-.8-3.7-2.29-4.55-1.46-.85-3.27-.27-5.03.29a7.07 7.07 0 0 1-3.24.57 6.88 6.88 0 0 1-2.4-2.05C33.05 1.44 31.75 0 30 0c-1.76 0-3.06 1.44-4.32 2.83a6.87 6.87 0 0 1-2.4 2.05 7.07 7.07 0 0 1-3.25-.57C18.28 3.75 16.47 3.17 15 4c-1.49.87-1.9 2.75-2.29 4.56a6.96 6.96 0 0 1-1.1 3.04 6.96 6.96 0 0 1-3.04 1.1c-1.81.4-3.7.8-4.55 2.28-.85 1.47-.27 3.28.29 5.04.44 1.02.64 2.13.57 3.24a6.88 6.88 0 0 1-2.05 2.4C1.44 26.94 0 28.24 0 30c0 1.76 1.44 3.06 2.83 4.33a6.87 6.87 0 0 1 2.05 2.4 7.05 7.05 0 0 1-.57 3.24C3.75 41.72 3.17 43.54 4 45c.87 1.49 2.75 1.9 4.56 2.29 1.09.12 2.13.5 3.04 1.1a6.96 6.96 0 0 1 1.1 3.04c.4 1.81.8 3.7 2.28 4.55 1.47.85 3.28.27 5.04-.29a7.07 7.07 0 0 1 3.24-.57 6.88 6.88 0 0 1 2.4 2.05C26.94 58.56 28.24 60 30 60c1.76 0 3.06-1.44 4.33-2.83a6.87 6.87 0 0 1 2.4-2.05 7.07 7.07 0 0 1 3.24.57c1.75.56 3.56 1.14 5.03.3 1.49-.87 1.9-2.75 2.29-4.56a6.96 6.96 0 0 1 1.1-3.04 6.96 6.96 0 0 1 3.04-1.1c1.81-.4 3.7-.8 4.55-2.29.85-1.46.27-3.28-.29-5.03a7.05 7.05 0 0 1-.57-3.24 6.88 6.88 0 0 1 2.05-2.4C58.56 33.05 60 31.75 60 30c0-1.76-1.44-3.06-2.83-4.32zm-1.35 7.16a7.9 7.9 0 0 0-2.63 3.38 8.13 8.13 0 0 0 .6 4.36c.43 1.34.86 2.72.46 3.42-.42.73-1.85 1.04-3.24 1.34-1.51.32-3.07.66-4.04 1.63a8.03 8.03 0 0 0-1.63 4.04c-.3 1.39-.62 2.82-1.34 3.24-.7.4-2.08-.04-3.42-.46a8.14 8.14 0 0 0-4.36-.6 7.9 7.9 0 0 0-3.38 2.63C31.87 56.9 30.87 58 30 58s-1.87-1.1-2.84-2.18a7.9 7.9 0 0 0-3.38-2.63 3.95 3.95 0 0 0-1-.13 11.54 11.54 0 0 0-3.36.72c-1.34.43-2.72.87-3.42.47-.73-.42-1.04-1.86-1.34-3.25-.32-1.5-.66-3.06-1.63-4.03a8.03 8.03 0 0 0-4.04-1.64c-1.39-.3-2.82-.6-3.24-1.33-.4-.7.03-2.08.46-3.42a8.13 8.13 0 0 0 .6-4.36 7.9 7.9 0 0 0-2.63-3.38C3.1 31.87 2 30.87 2 30s1.1-1.87 2.18-2.84a7.9 7.9 0 0 0 2.64-3.38 8.13 8.13 0 0 0-.6-4.36c-.43-1.34-.87-2.72-.47-3.42.42-.73 1.86-1.04 3.25-1.34 1.5-.32 3.06-.66 4.03-1.63a8.03 8.03 0 0 0 1.64-4.04c.3-1.39.6-2.82 1.33-3.24.7-.41 2.08.03 3.42.46 1.48.48 3.02.96 4.36.6a7.9 7.9 0 0 0 3.38-2.63C28.13 3.1 29.13 2 30 2s1.87 1.1 2.84 2.18a7.9 7.9 0 0 0 3.38 2.63 8.14 8.14 0 0 0 4.36-.6c1.34-.43 2.72-.86 3.42-.46.73.42 1.04 1.85 1.34 3.24.32 1.51.66 3.07 1.63 4.04a8.03 8.03 0 0 0 4.04 1.64c1.39.3 2.82.6 3.24 1.33.4.7-.03 2.08-.46 3.42a8.13 8.13 0 0 0-.6 4.36 7.9 7.9 0 0 0 2.63 3.38C56.9 28.13 58 29.13 58 30s-1.1 1.87-2.18 2.84z"/><path d="M30 12a1 1 0 0 0 1-1V9a1 1 0 0 0-2 0v2a1 1 0 0 0 1 1zm-5.88-.1a1 1 0 0 0 1.93-.51l-.52-1.93a1 1 0 1 0-1.93.51l.52 1.94zm-3.76-.59a1 1 0 1 0-1.73 1l1 1.74a1 1 0 1 0 1.73-1l-1-1.74zm-4.5 5.96a1 1 0 1 0 1.41-1.41l-1.41-1.42a1 1 0 1 0-1.42 1.42l1.42 1.41zm0 25.46l-1.42 1.41a1 1 0 0 0 1.42 1.42l1.41-1.42a1 1 0 0 0-1.41-1.41zM21 45.6a1 1 0 0 0-1.36.35l-1 1.74a1 1 0 0 0 1.73 1l1-1.74A1 1 0 0 0 21 45.6zm4.34 1.8a1 1 0 0 0-1.22.7l-.52 1.92a1 1 0 0 0 .96 1.26 1 1 0 0 0 .97-.74l.52-1.93a1 1 0 0 0-.7-1.22zM30 48a1 1 0 0 0-1 1v2a1 1 0 0 0 2 0v-2a1 1 0 0 0-1-1zm5.88.1a1 1 0 0 0-1.93.51l.52 1.93a1 1 0 1 0 1.93-.51l-.52-1.94zm4.48-2.15a1 1 0 0 0-1.73 1l1 1.74a1 1 0 1 0 1.74-1l-1-1.74zm3.78-3.22a1 1 0 0 0-1.41 1.41l1.41 1.42a1 1 0 1 0 1.42-1.42l-1.42-1.41zm-.7-25.16a1 1 0 0 0 .7-.3l1.42-1.41a1 1 0 1 0-1.42-1.42l-1.41 1.42a1 1 0 0 0 .7 1.7zm-3.94-3.02a1 1 0 0 0 .87-.5l1-1.74a1 1 0 1 0-1.74-1l-1 1.74a1 1 0 0 0 .87 1.5zm-4.84-1.94a1 1 0 0 0 1.22-.7l.52-1.94.02-.05a1 1 0 1 0-1.95-.46l-.52 1.93a1 1 0 0 0 .7 1.22zM33 36h-7v-5h5a1 1 0 0 0 0-2h-5v-5h7a1 1 0 0 0 0-2h-8a1 1 0 0 0-1 1v14a1 1 0 0 0 1 1h8a1 1 0 0 0 0-2zm-13.76 1.62c.07.09.15.16.24.22l.1.06c.13.06.28.1.42.1a1 1 0 0 0 .35-.07l.1-.06c.05-.01.1-.03.13-.06l.05-.05a.94.94 0 0 0 .15-.16.79.79 0 0 0 .16-.32c.02-.07.04-.14.04-.2L21 37V23a1 1 0 1 0-2 0v10.88l-8.19-11.46-.05-.05a.94.94 0 0 0-.16-.15 1 1 0 0 0-.15-.1 1.03 1.03 0 0 0-.17-.06.92.92 0 0 0-.2-.04L10 22a.85.85 0 0 0-.1.02.94.94 0 0 0-.39.13 1.01 1.01 0 0 0-.09.04l-.05.06a.94.94 0 0 0-.15.15.98.98 0 0 0-.1.15.96.96 0 0 0-.06.18l-.04.2L9 23V37a1 1 0 0 0 2 0V26.12l8.19 11.46.05.04zm30.97-15.6a1 1 0 0 0-1.19.77L46.8 33.21l-2.84-8.53a1 1 0 0 0-1.9 0l-2.84 8.53-2.23-10.42a1 1 0 0 0-1.96.42l3 14a1 1 0 0 0 .92.79 1 1 0 0 0 1-.68L43 28.16l3.05 9.16A1 1 0 0 0 47 38h.06a1 1 0 0 0 .92-.79l3-14a1 1 0 0 0-.77-1.19z"/></g></svg>