<svg xmlns="http://www.w3.org/2000/svg" width="60" height="60"><g fill="#3b2314"><path d="M58.83 13.63H55.3c-.52 0-.98.34-1.12.84L53 18.52h-5.17v-7.87c0-.7.57-1.27 1.27-1.27h2.6c1.21 0 2.2.98 2.2 2.19 0 .64.52 1.17 1.17 1.17h2.5c.65 0 1.18-.53 1.18-1.17v-3A8.59 8.59 0 0 0 50.18 0h-9.32c-.52 0-.98.34-1.13.84l-.13.46h-.31l-.42-.72A1.17 1.17 0 0 0 37.86 0h-3.98c-.64 0-1.17.53-1.17 1.17v8.18c0 .65.53 1.17 1.17 1.17h3.98c.41 0 .8-.22 1.01-.58l.42-.72h.17l.23 1.52v7.78h-3.71v-.5a1.18 1.18 0 0 0-.16-.58l-3.75-6.46a1.17 1.17 0 0 0-2.03 0l-3.75 6.46a1.18 1.18 0 0 0-.16.59v.49h-2.65l2.86-17.16A1.17 1.17 0 0 0 25.2 0H10.78c-.65 0-1.17.53-1.17 1.17v17.35H7L5.8 14.47a1.17 1.17 0 0 0-1.12-.84H1.17c-.65 0-1.17.52-1.17 1.17v44.03C0 59.48.53 60 1.17 60h57.66c.64 0 1.17-.53 1.17-1.17V14.8c0-.65-.53-1.17-1.17-1.17zm-6.51 7.23l-2.53 8.67h-.57v-6.56c0-.8-.28-1.53-.74-2.11h3.84zM38.62 6.88c-.42 0-.8.22-1.02.58l-.42.72h-2.13V2.34h2.13l.42.72c.21.36.6.58 1.01.58h1.87c.52 0 .97-.34 1.12-.84l.14-.46h8.44a6.24 6.24 0 0 1 6.23 6.23v1.83h-.32a4.54 4.54 0 0 0-4.38-3.37h-2.6a3.63 3.63 0 0 0-3.42 2.45h-3.82l-.23-1.6a1.17 1.17 0 0 0-1.17-1h-1.86zm7.2 15.03c.58 0 1.05.48 1.05 1.06v6.56h-6.22v-6.56c0-.58.48-1.06 1.06-1.06h4.1zm-3.79-2.34v-7.75h3.46v7.75h-3.46zm-6.05 1.29h3.07a3.38 3.38 0 0 0-.74 2.1v6.57h-2.33v-8.67zm-4.92-6.96l1.7 2.96h-3.42l1.72-2.96zm-2.58 5.3h5.15v10.33h-5.15V19.2zm-2.35 1.66v8.67h-4.48l1.44-8.67h3.04zM16.3 2.34h3.2l-.45 2.81h-2.76v-2.8zm-4.34 0h2v3.99c0 .64.52 1.17 1.16 1.17h4.93c.58 0 1.07-.42 1.16-.99l.66-4.17h1.94l-1.34 8.05h-10.5V2.34zm0 10.4h10.12l-2.8 16.79h-7.32V12.74zm-2.34 8.12v6.6l-1.93-6.6h1.93zm48.05 22.73H40.28a1.17 1.17 0 0 0 0 2.35h17.38v7.03H37.34a1.17 1.17 0 0 0 0 2.34h20.32v2.35H2.34V15.97h1.47L5 20.03l3.21 11c.15.5.6.84 1.13.84h41.32c.52 0 .98-.34 1.13-.84l4.4-15.06h1.47v27.62z"/><path d="M6.69 53.31a1.18 1.18 0 0 0-.83-.34c-.3 0-.61.12-.83.34a1.18 1.18 0 0 0-.34.83 1.18 1.18 0 0 0 1.17 1.17c.3 0 .6-.12.83-.34a1.18 1.18 0 0 0 .34-.83c0-.3-.12-.6-.34-.83zm0-17.34a1.18 1.18 0 0 0-.83-.34c-.3 0-.61.12-.83.34a1.18 1.18 0 0 0-.34.83 1.18 1.18 0 0 0 1.17 1.17c.3 0 .6-.12.83-.34a1.18 1.18 0 0 0 0-1.66zm48.28 0a1.18 1.18 0 0 0-.83-.34c-.3 0-.61.12-.83.34a1.18 1.18 0 0 0-.34.83c0 .3.12.6.34.83a1.18 1.18 0 0 0 2-.83c0-.31-.12-.61-.34-.83zM33.41 53.31a1.18 1.18 0 0 0-.83-.34c-.31 0-.61.12-.83.34a1.18 1.18 0 0 0-.34.83 1.18 1.18 0 0 0 1.17 1.17c.3 0 .6-.12.83-.34a1.18 1.18 0 0 0 .34-.83c0-.3-.13-.6-.34-.83zm-7.28-5.03H9.43a1.17 1.17 0 0 0 0 2.34h16.7a1.17 1.17 0 0 0 0-2.34zm-7.4-8.23H5.86a1.17 1.17 0 0 0 0 2.34h12.87a1.17 1.17 0 0 0 0-2.34zm16.56 3.54h-.1a1.17 1.17 0 0 0 0 2.35h.1a1.17 1.17 0 0 0 0-2.35z"/></g></svg>