<svg xmlns="http://www.w3.org/2000/svg" width="60" height="48"><g fill="#3b2314"><path d="M59.91 8V6h-8.98a1 1 0 0 0-1 1v1.72h-8.78c.2-.53.32-1.1.32-1.66V5.41a1 1 0 0 0-1-1H26.33a1 1 0 0 0-.7.3L21.6 8.71H9.98V7a1 1 0 0 0-1-1H0v2h7.98v17.96H0v2h8.98a1 1 0 0 0 1-1V24.7h3.82l.1.1-1.5 1.51a1 1 0 0 0 0 1.41L26.2 41.53a1 1 0 0 0 1.41 0l1.62-1.62a3.78 3.78 0 0 0 4.58-.6l9.84-9.84a3.82 3.82 0 0 0 .5-4.78h5.74v2.27a1 1 0 0 0 1 1h8.97v-2H51.9L51.93 8h7.98zm-33 31.41l-2.08-2.08 2.2-2.2-1.42-1.41-2.2 2.2-1.99-2 2.2-2.2-1.4-1.41L20 32.5l-2-2 2.21-2.21-1.41-1.41-2.2 2.21-2.1-2.1 4.19-4.18a1.82 1.82 0 0 1 2.57 0l9.84 9.84c.7.7.7 1.86 0 2.57l-4.2 4.19zm15.34-11.35l-9.84 9.84a1.82 1.82 0 0 1-1.65.5l1.75-1.76a3.81 3.81 0 0 0 0-5.39l-9.83-9.84a3.82 3.82 0 0 0-5.4 0l-1.97 1.96-.39-.39a1 1 0 0 0-.7-.3H9.98V10.72h12.04a1 1 0 0 0 .7-.29l4.02-4.02h12.74v.66a2.66 2.66 0 0 1-2.66 2.66h-5a.52.52 0 0 0-.28-.04 1 1 0 0 0-.7.3l-7.95 7.93a1 1 0 0 0 0 1.41l3.15 3.16a3 3 0 0 0 4.23 0l4.49-4.49 7.5 7.5c.7.71.7 1.86 0 2.57zm7.65-5.37h-7.63l-6.81-6.81a1 1 0 0 0-1.41 0l-5.2 5.19a1 1 0 0 1-1.4 0L25 18.62l6.9-6.9h4.92a4.61 4.61 0 0 0 2.84-1h10.27l-.03 11.97zM29.23 42.22l-2.29 2.3-2.28-2.3-1.42 1.41 3 3a1 1 0 0 0 1.4 0l3-3-1.4-1.4z"/><path d="M34.22 41.23l4.99-5 1.41 1.42-4.99 4.99zM24.95.02a1 1 0 0 0-.7.29l-4 4 1.41 1.4 3.7-3.7h3.58v-2h-4z"/></g></svg>