<svg xmlns="http://www.w3.org/2000/svg" width="50" height="60"><g fill="#3b2314"><path d="M49.57 52.12l-6.3-8.09a9.11 9.11 0 0 0 4.98-3.68c1.48-2.57.81-5.7.17-8.71a23.8 23.8 0 0 1-.7-4.74c.07-1.6.3-3.2.7-4.75.64-3.02 1.31-6.14-.17-8.7-1.53-2.65-4.62-3.64-7.61-4.58a22.15 22.15 0 0 1-4.3-1.69 21.02 21.02 0 0 1-3.45-2.79C30.67 2.33 28.16 0 24.96 0c-3.2 0-5.72 2.33-7.94 4.39a21.02 21.02 0 0 1-3.44 2.8 22.15 22.15 0 0 1-4.3 1.67c-3 .95-6.08 1.93-7.62 4.58-1.48 2.57-.81 5.7-.16 8.71.4 1.56.63 3.15.7 4.75-.07 1.6-.3 3.19-.7 4.74-.65 3.02-1.32 6.15.16 8.7a9.11 9.11 0 0 0 4.99 3.7l-6.3 8.08a1.03 1.03 0 0 0 .94 1.67l7.4-.93 1.82 6.39a1.03 1.03 0 0 0 1.82.35l6.6-8.5a9.57 9.57 0 0 0 6.03 2.7 9.57 9.57 0 0 0 6.02-2.7l6.6 8.5a1.03 1.03 0 0 0 1.82-.35l1.83-6.39 7.4.93a1.03 1.03 0 0 0 .94-1.67zm-37.63 4.6l-1.5-5.28a1.03 1.03 0 0 0-1.13-.74l-5.8.72 5.2-6.67.57.18c1.49.41 2.93.97 4.3 1.68a21.02 21.02 0 0 1 3.44 2.8l.36.32-5.44 7zm13.02-5c-2.4 0-4.4-1.86-6.53-3.83a22.8 22.8 0 0 0-3.82-3.07 23.99 23.99 0 0 0-4.7-1.86c-2.74-.87-5.33-1.69-6.46-3.65-1.08-1.87-.52-4.48.07-7.24.43-1.7.68-3.43.75-5.17a25.32 25.32 0 0 0-.75-5.18c-.6-2.76-1.15-5.36-.07-7.24 1.14-1.96 3.72-2.78 6.45-3.64a24 24 0 0 0 4.71-1.87 22.8 22.8 0 0 0 3.82-3.07c2.13-1.97 4.14-3.83 6.53-3.83 2.39 0 4.4 1.86 6.53 3.84a22.8 22.8 0 0 0 3.81 3.07c1.5.78 3.08 1.4 4.71 1.86 2.74.86 5.32 1.68 6.45 3.64 1.09 1.87.53 4.48-.07 7.24a25.33 25.33 0 0 0-.74 5.18c.07 1.74.32 3.48.74 5.17.6 2.76 1.15 5.37.07 7.24-1.14 1.96-3.72 2.78-6.45 3.65a24 24 0 0 0-4.7 1.86 22.8 22.8 0 0 0-3.82 3.07c-2.13 1.97-4.14 3.83-6.53 3.83zM40.6 50.7a1.03 1.03 0 0 0-1.13.74l-1.5 5.28-5.44-6.99.35-.33a21.02 21.02 0 0 1 3.45-2.79 22.15 22.15 0 0 1 4.3-1.68l.57-.18 5.2 6.67-5.8-.72z"/><path d="M24.96 8.28a18.62 18.62 0 1 0 0 37.24 18.62 18.62 0 0 0 0-37.24zm0 35.17a16.55 16.55 0 1 1 0-33.1 16.55 16.55 0 0 1 0 33.1z"/><path d="M36.9 22.58a2.07 2.07 0 0 0-1.68-.86H28.9l-1.97-6.02a2.07 2.07 0 0 0-3.93 0l-1.96 6.02H14.7a2.07 2.07 0 0 0-1.22 3.75l5.13 3.72-1.96 6.03a2.07 2.07 0 0 0 3.19 2.31l5.13-3.72 5.13 3.72a2.04 2.04 0 0 0 2.43 0 2.04 2.04 0 0 0 .75-2.31l-1.96-6.03 5.13-3.72a2.07 2.07 0 0 0 .45-2.9zm-7.41 5.38a1.03 1.03 0 0 0-.38 1.16l2.2 6.74-5.75-4.17a1.03 1.03 0 0 0-1.21 0l-5.74 4.17 2.2-6.74a1.03 1.03 0 0 0-.38-1.16l-5.74-4.17h7.1c.44 0 .84-.29.98-.71l2.19-6.74 2.19 6.74c.14.42.53.71.98.71h7.1l-5.74 4.17z"/></g></svg>