<svg xmlns="http://www.w3.org/2000/svg" width="60" height="61"><g fill="#3b2314"><path d="M55.15 0H10.72A4.83 4.83 0 0 0 5.9 4.83v15.05L.4 25.4a.97.97 0 0 0-.29.69v33.8h1.93v-33.4L5.9 22.6v2.5c0 .53.43.97.96.97h11.47a3.87 3.87 0 0 1-3.74 2.9h-3.87a.97.97 0 0 0-.96.96c0 3.25-2.55 5.8-5.8 5.8v1.93a8 8 0 0 0 1.94-.24v13.76a4.83 4.83 0 0 0 4.83 4.83h2.9v3.86h1.92v-3.86h15.46v1.93c0 .25.1.5.28.68l1.93 1.93 1.37-1.36-1.65-1.65v-5.96l1.93-1.94v4.44h1.93V27.52a1.45 1.45 0 0 1 2.9 0v21.74h1.93v-8.22a1.45 1.45 0 0 1 2.9 0v8.22h1.93v-8.22a1.45 1.45 0 0 1 2.9 0v8.22h1.93v-8.22a1.45 1.45 0 0 1 2.9 0v18.84h1.93v-3.96a4.84 4.84 0 0 0 3.86-4.73V4.83A4.83 4.83 0 0 0 55.15 0zm2.9 51.19a2.9 2.9 0 0 1-1.93 2.72V41.04a3.38 3.38 0 0 0-3.38-3.37c-.95 0-1.8.39-2.42 1.02a3.37 3.37 0 0 0-4.83 0 3.37 3.37 0 0 0-2.41-1.02 3.34 3.34 0 0 0-1.45.33V27.52a3.38 3.38 0 0 0-3.38-3.38 3.38 3.38 0 0 0-3.38 3.38v19.4l-3.58 3.58a.97.97 0 0 0-.29.69v2.9H10.72a2.9 2.9 0 0 1-2.9-2.9V36.66a7.61 7.61 0 0 0 3.81-5.75h2.96a5.8 5.8 0 0 0 5.8-5.8.97.97 0 0 0-.97-.96H7.82V4.82a2.9 2.9 0 0 1 2.9-2.9h44.43a2.9 2.9 0 0 1 2.9 2.9v46.36z"/><path d="M27.14 3.86H12.65a.97.97 0 0 0-.96.97v4.83c0 .53.43.96.97.96h14.48a.97.97 0 0 0 .97-.96V4.83a.97.97 0 0 0-.97-.97zm-.96 4.83H13.62V5.8h12.56v2.9zm27.04-4.83H38.73a.97.97 0 0 0-.96.97v4.83c0 .53.43.96.96.96h14.49a.97.97 0 0 0 .96-.96V4.83a.97.97 0 0 0-.96-.97zm-.97 4.83H39.7V5.8h12.55v2.9zm-25.1 24.15h-14.5a.97.97 0 0 0-.96.96v4.83c0 .54.43.97.97.97h14.48a.97.97 0 0 0 .97-.97V33.8a.97.97 0 0 0-.97-.96zm-.97 4.83H13.62v-2.9h12.56v2.9zm5.8-33.8h1.92V22.2h-1.93zm-20.3 8.68h10.63v1.94H11.7zm13.53 0h2.9v1.94h-2.9zM11.7 16.43H22.3v1.93H11.7zm13.52 0h2.9v1.93h-2.9zM11.7 20.28H22.3v1.93H11.7zm13.52 0h2.9v1.93h-2.9zm0 3.86h2.9v1.94h-2.9zm0 3.87h2.9v1.93h-2.9zM11.7 41.53H22.3v1.93H11.7zm13.52 0h2.9v1.93h-2.9zM11.7 45.39H22.3v1.93H11.7zm13.52 0h2.9v1.93h-2.9zM11.7 49.26H22.3v1.93H11.7zm13.52 0h2.9v1.93h-2.9zm12.56-36.7h10.62v1.93H37.77zm13.52 0h2.9v1.93h-2.9zm-13.52 3.86h10.62v1.93H37.77zm13.52 0h2.9v1.93h-2.9zm-13.52 3.86h10.62v1.93H37.77zm13.52 0h2.9v1.93h-2.9zm-7.73 3.86h4.83v1.94h-4.83zm7.73 0h2.9v1.94h-2.9zm-7.73 3.87h4.83v1.93h-4.83zm7.73 0h2.9v1.93h-2.9zm-7.73 3.86h4.83v1.93h-4.83zm7.73 0h2.9v1.93h-2.9z"/></g></svg>