<svg xmlns="http://www.w3.org/2000/svg" width="35" height="60"><g fill="#3b2314"><path d="M20.8 25.66a3.98 3.98 0 0 0-.94-5.07l10.8-7.21c.32-.22.51-.58.51-.97V1.17C31.17.53 30.65 0 30 0H4.69c-.65 0-1.17.53-1.17 1.17v11.24c0 .39.2.75.52.97l10.79 7.2a3.98 3.98 0 0 0-.94 5.08A17.37 17.37 0 0 0 0 42.66C0 52.22 7.78 60 17.34 60c9.57 0 17.35-7.78 17.35-17.34 0-8.38-5.98-15.4-13.9-17zm2.87-23.32h5.16v9.44l-5.16 3.44V2.34zM5.86 11.78V2.34h5.16v6.47a1.17 1.17 0 0 0 2.34 0V2.34h7.97V16.8l-3.99 2.66-11.48-7.67zm13.12 11.9a1.64 1.64 0 1 1-3.28-.01 1.64 1.64 0 0 1 3.28 0zm-1.64 33.98c-8.27 0-15-6.73-15-15s6.73-15 15-15 15 6.73 15 15-6.73 15-15 15z"/><path d="M25.52 32.92h-.01a1.17 1.17 0 0 0-1.66 1.65 1.17 1.17 0 0 0 1.67 0c.45-.45.45-1.2 0-1.65zm3.05 3.9a1.17 1.17 0 1 0-2.07 1.08 10.2 10.2 0 0 1 1.16 4.76c0 5.68-4.63 10.3-10.32 10.3a1.17 1.17 0 0 0 0 2.35c6.98 0 12.66-5.67 12.66-12.65a12.69 12.69 0 0 0-1.43-5.85zM10.05 49.94v-.01a1.17 1.17 0 0 0-1.66 0 1.18 1.18 0 0 0 .83 2 1.17 1.17 0 0 0 .83-2zM17.35 30A12.67 12.67 0 0 0 5.81 47.9a1.17 1.17 0 1 0 2.13-.98 10.23 10.23 0 0 1-.92-4.26c0-5.69 4.63-10.32 10.31-10.32a1.17 1.17 0 0 0 0-2.34z"/><path d="M19.89 46.2h-1.35v-8.25a1.17 1.17 0 0 0-2-.83l-2.83 2.82a1.17 1.17 0 0 0 1.66 1.66l.82-.82v5.41h-1.35a1.17 1.17 0 0 0 0 2.35h5.04a1.17 1.17 0 0 0 0-2.35z"/></g></svg>