<svg xmlns="http://www.w3.org/2000/svg" width="40" height="22"><path fill="#3b2314" d="M38.66 6.34H36.5V2.08A2.1 2.1 0 0 0 34.41 0H21.5c-.59 0-1.13.25-1.51.64A2.1 2.1 0 0 0 18.48 0H5.6a2.1 2.1 0 0 0-2.1 2.08v4.26H1.34A1.34 1.34 0 0 0 0 7.67v9.7a1.34 1.34 0 0 0 1.34 1.34h3.04l.16-.01h.09v1.44c0 .52.43.95.96.95h3.8c.52 0 .96-.43.96-.96v-1.42h19.3v1.42c0 .53.43.96.97.96h3.79c.53 0 .96-.43.96-.96V18.7h3.29A1.34 1.34 0 0 0 40 17.38v-9.7a1.34 1.34 0 0 0-1.34-1.33zM4.55 10.48a1.34 1.34 0 0 0-1.06 1.3v2.24c0 .64.45 1.17 1.06 1.3v2.05c0 .1-.08.16-.17.16H1.34c-.1 0-.17-.07-.17-.16v-9.7c0-.08.08-.16.17-.16h3.04c.1 0 .17.08.17.16v2.8zm4.63 9.44H5.8v-1.21h3.38v1.21zm25.02 0h-3.38v-1.21h3.38v1.21zM5.71 17.53a1.32 1.32 0 0 0 .01-.16v-2.02h13.52c.28 0 .54-.09.76-.24.22.15.48.24.76.24h13.52v2.18H5.72zM35.34 6.37a1.34 1.34 0 0 0-1.06 1.3v2.78h-8.63a.59.59 0 1 0 0 1.17h9.52c.1 0 .17.07.17.16v2.24c0 .09-.08.16-.17.16H20.76c-.1 0-.17-.07-.17-.16v-2.24c0-.09.07-.16.17-.16h2.63a.59.59 0 1 0 0-1.17h-2.63c-.28 0-.54.08-.76.23a1.34 1.34 0 0 0-.76-.23h-8.83a.59.59 0 1 0 0 1.17h8.83c.1 0 .17.07.17.16v2.24c0 .09-.07.16-.17.16H4.84c-.1 0-.18-.07-.18-.16v-2.24c0-.09.08-.16.17-.16h3.38a.59.59 0 1 0 0-1.17H5.72V7.67c0-.63-.45-1.17-1.06-1.3v-4.3c0-.5.42-.9.93-.9h12.9a.92.92 0 0 1 .92.9v6.65a.59.59 0 1 0 1.18 0V2.08c0-.5.41-.9.93-.9H34.4a.92.92 0 0 1 .93.9v4.3zm3.49 11c0 .1-.08.16-.17.16h-3.04c-.1 0-.17-.07-.17-.16v-2.05a1.34 1.34 0 0 0 1.06-1.3v-2.24c0-.64-.45-1.17-1.06-1.3v-2.8c0-.1.08-.17.17-.17h3.04c.1 0 .17.08.17.16v9.7z"/></svg>