<svg xmlns="http://www.w3.org/2000/svg" width="40" height="40"><g fill="#3b2314"><path d="M38.6 18.09V7.32A7.33 7.33 0 0 0 31.26 0H8.65a7.33 7.33 0 0 0-7.32 7.32v10.77A2 2 0 0 0 0 19.96v15.36a2 2 0 0 0 1.33 1.87v1.4c0 .73.6 1.33 1.33 1.33h2.66c.74 0 1.33-.6 1.33-1.33v-1.28h26.62v1.28c0 .73.6 1.33 1.33 1.33h2.66c.74 0 1.33-.6 1.33-1.33v-1.4a2 2 0 0 0 1.33-1.87V19.96a1.99 1.99 0 0 0-1.33-1.88zM2.65 7.32a6 6 0 0 1 5.99-5.99h22.62a6 6 0 0 1 6 5.99v10.64h-1.34V7.32a4.66 4.66 0 0 0-4.66-4.66H8.65a4.66 4.66 0 0 0-4.66 4.66v10.64H2.66V7.32zm23.96 16.63v-5.32c0-.37.3-.67.66-.67h2.66c.37 0 .67.3.67.67v5.32h-4zm3.99 1.34v1.33h-4v-1.33h4zm-.67-8.65h-2.66a2 2 0 0 0-1.87 1.32H14.64a2.66 2.66 0 0 0-2.66-2.66h-2a2.66 2.66 0 0 0-2.66 2.66h-2V7.32a3.33 3.33 0 0 1 3.33-3.33h7.98v3.33a3.33 3.33 0 1 0 6.66 0V3.99h7.98a3.33 3.33 0 0 1 3.33 3.33v10.65h-2.78a2 2 0 0 0-1.88-1.33zM8.65 28.6V27l3.33-1.9v3.5H8.65zm2.66 1.33v1.33h-2v-1.33h2zm-2.66-4.47v-7.5a1.33 1.33 0 0 1 1.33-1.33h2c.73 0 1.33.6 1.33 1.33h-.67a.67.67 0 0 0-.66.66v4.94l-3.33 1.9zm9.31-18.15V3.99h4v3.33a2 2 0 0 1-4 0zM2.66 38.59v-1.28h2.66v1.28H2.66zm31.94 0v-1.28h2.66v1.28H34.6zm3.99-3.27a.66.66 0 0 1-.53.64.63.63 0 0 0-.14-.03h-3.99a.66.66 0 0 0-.26.05H6.25a.66.66 0 0 0-.26-.05h-4a.63.63 0 0 0-.13.03.66.66 0 0 1-.53-.64V19.96c0-.37.3-.67.67-.67h5.32v9.99a.67.67 0 0 0 .66.66v2a.67.67 0 0 0 .67.66h3.33a.67.67 0 0 0 .66-.66v-2a.67.67 0 0 0 .67-.66V19.3h11.97v9.98a.67.67 0 0 0 1.33 0v-1.33h1.33v1.33a.67.67 0 1 0 1.33 0v-1.33h1.33v1.33a.67.67 0 0 0 1.34 0V19.3h5.98c.18 0 .35.07.48.2a.64.64 0 0 1 .19.46v15.36z"/><path d="M19.96 20.63a2 2 0 1 0 0 3.99 2 2 0 0 0 0-4zm0 2.66a.67.67 0 1 1 0-1.33.67.67 0 0 1 0 1.33z"/></g></svg>