<svg xmlns="http://www.w3.org/2000/svg" width="40" height="31"><path fill="#3b2314" d="M38.8 9.8c-.79-.8-1.7-1.02-2.15-1.11A4.79 4.79 0 0 0 35 8.61C32.8 3.48 26.88 0 19.98 0c-6.5 0-12.25 3.5-14.6 8.69a4.78 4.78 0 0 0-2.07 0c-.44.1-1.36.31-2.16 1.11a4.07 4.07 0 0 0-1.1 3.35 4.2 4.2 0 0 0 3.27 3.32c.48.1.97.1 1.44-.01l.12-.03c.14.24.59 1.48-.5 6.82a.89.89 0 0 0 .04.42c.63 2.03 1.65 3.02 3.33 3.21l.1.01v2.6c0 .48.38.87.86.87a.87.87 0 0 0 .86-.87v-2.6H30.4v2.6c0 .48.39.87.87.87a.87.87 0 0 0 .86-.87v-2.6h.1c1.67-.2 2.7-1.19 3.33-3.22a.89.89 0 0 0 .02-.42c-1.07-5.35-.63-6.59-.49-6.82l.12.03c.47.1.96.11 1.43 0a4.2 4.2 0 0 0 3.28-3.31c.3-1.9-.96-3.21-1.1-3.36zM19.99 1.72c6.12 0 11.37 2.99 13.36 7.42a7.88 7.88 0 0 0-.85.55 7.87 7.87 0 0 0-1.95 1.95 8.42 8.42 0 0 0-.97 1.93 18.87 18.87 0 0 0-.9 5.5H11.3a19.18 19.18 0 0 0-.9-5.5 8.42 8.42 0 0 0-.97-1.93A7.87 7.87 0 0 0 7.47 9.7a9.54 9.54 0 0 0-.49-.33c2.07-4.56 7.2-7.63 13-7.63zm18.23 11.15c-.17 1.12-1.25 1.74-1.93 1.88a1.67 1.67 0 0 1-.74-.02c-.3-.06-.7-.14-1.16.08-1.45.65-1.6 3.13-.54 8.54-.55 1.6-1.23 1.73-1.75 1.79H7.89c-.53-.06-1.22-.18-1.76-1.79 1.07-5.4.91-7.89-.53-8.54-.46-.2-.87-.13-1.17-.08-.24.06-.5.07-.74.02-.68-.15-1.75-.76-1.93-1.88-.16-1.05.62-1.86.62-1.87.44-.44.98-.56 1.3-.63a2.97 2.97 0 0 1 1.36 0c.57.13.93.38 1.43.73a6.15 6.15 0 0 1 2.28 3.05c.7 1.97.82 4.47.82 5.78 0 .47.39.86.86.86h19.08a.87.87 0 0 0 .87-.86c0-1.32.11-3.82.82-5.79a6.15 6.15 0 0 1 2.28-3.05c.49-.35.85-.6 1.42-.73.45-.1.9-.1 1.36 0 .33.07.87.2 1.31.64.02.01.8.82.64 1.87z"/></svg>