<svg xmlns="http://www.w3.org/2000/svg" xmlns:xlink="http://www.w3.org/1999/xlink" width="40" height="30"><defs><rect id="a" width="24" height="13" rx="2"/><circle id="b" cx="5.5" cy="9.5" r="2.5"/><circle id="c" cx="13.5" cy="9.5" r="2.5"/><circle id="d" cx="20.5" cy="6.5" r="2.5"/></defs><g fill="none" fill-rule="evenodd"><path fill="#3b2314" fill-rule="nonzero" d="M1.94 27.11v-.64c0-.25.04-.48.13-.7H1.9a1.9 1.9 0 0 1-1.9-1.9v-7.75c0-1.05.85-1.9 1.9-1.9H25.2V1.9c0-1.05.85-1.9 1.9-1.9h7.76c1.05 0 1.9.85 1.9 1.9v.65l-.01.17c.22-.09.45-.13.7-.13h.64c1.05 0 1.9.85 1.9 1.9v20.04A4.49 4.49 0 0 1 35.51 29H3.84a1.9 1.9 0 0 1-1.9-1.9zm34.9-5.57l-3.3-3.3v1.5l3.3 3.32v-1.52zm-1.28-8.04h-1.34a1.9 1.9 0 0 1-1.9-1.9V7.07c0-1.05.85-1.9 1.9-1.9h1.34v-.69-.17a1.9 1.9 0 0 1-.7.13h-7.75a1.89 1.89 0 0 1-.69-.13v9.91h9.13v-.73zm1.29-3.6l-3.06-3.05a.6.6 0 0 1-.12-.18.68.68 0 0 0-.14.4v1.04l3.32 3.32V9.9zm-1.81-3.52l1.8 1.81V7.07a.69.69 0 0 0-.68-.69h-1.12zm-1.5 4.96l.93.94H36l-2.46-2.45v1.52zM7.46 22.54h-.4a.69.69 0 0 0-.65.48l2.84 2.84h1.52l-3.31-3.31zm-2.3.7c0-1.05.85-1.9 1.9-1.9h4.53c1.04 0 1.9.85 1.9 1.9v1.33h.72v-9.14h-9.9c.08.22.13.45.13.7v7.75c0 .24-.05.47-.13.69h.85v-1.34zm10.26-7.8v9.13h.73v-1.34c0-1.04.85-1.9 1.9-1.9h4.53c1.04 0 1.9.86 1.9 1.9v1.34h.72v-9.14h-9.78zm3.03 7.1h-.4a.69.69 0 0 0-.65.48l2.84 2.84h1.52l-3.31-3.31zm7.96-7.1v9.13h.73v-1.34c0-1.04.85-1.9 1.9-1.9h3.27v-3.27c0-1.05.86-1.9 1.9-1.9h1.34v-.73h-9.14zm5.05 10.42l-2.85-2.85a.6.6 0 0 1-.12-.18.68.68 0 0 0-.14.4v1.05l1.59 1.58h1.52zm-.08-3.31h-1.52l3.31 3.31h1.52l-3.31-3.31zm5.46-4.24l-.94-.93H34.4l2.46 2.45v-1.52zm-.02 6.45l-3.3-3.3v.48a.6.6 0 0 1-.45.59l2.86 2.86a.6.6 0 0 1 .17.33c.37-.19.64-.54.72-.96zm-13.56.41v-1.04l-1.58-1.58h-1.52l2.84 2.84a.6.6 0 0 1 .13.18.68.68 0 0 0 .13-.4zm-4.73.69l-1.17-1.16v.47c0 .38.31.69.7.69h.47zm-6.26-.69v-1.04l-1.58-1.58H9.18l2.84 2.84a.6.6 0 0 1 .13.18.68.68 0 0 0 .13-.4zm-4.73.69L6.38 24.7v.47c0 .38.31.69.7.69h.47zM1.2 16.12v7.76c0 .38.31.69.69.69h.64a.69.69 0 0 0 .7-.7v-7.75a.69.69 0 0 0-.7-.69H1.9a.69.69 0 0 0-.69.69zM35.56 1.9a.69.69 0 0 0-.7-.69h-7.75a.69.69 0 0 0-.69.69v.65c0 .38.31.68.69.68h7.76a.69.69 0 0 0 .69-.68V1.9zm-.04 25.9a3.28 3.28 0 0 0 3.27-3.27V4.48a.69.69 0 0 0-.69-.68h-.65a.69.69 0 0 0-.68.68v.8c.75.24 1.3.95 1.3 1.8v4.52a1.9 1.9 0 0 1-1.3 1.8v2.86c.75.26 1.3.97 1.3 1.8v6.47a2.55 2.55 0 0 1-2.56 2.54h-6.46a1.9 1.9 0 0 1-1.8-1.3H24.4a1.9 1.9 0 0 1-1.8 1.3h-4.53a1.9 1.9 0 0 1-1.8-1.3H13.4a1.9 1.9 0 0 1-1.8 1.3H7.07a1.9 1.9 0 0 1-1.8-1.3H3.84a.69.69 0 0 0-.69.7v.64c0 .38.31.69.69.69h31.68z"/><use fill="#FFF" xlink:href="#a"/><rect width="23" height="12" x=".5" y=".5" stroke="#3b2314" rx="2"/><use fill="#FFF" xlink:href="#b"/><circle cx="5.5" cy="9.5" r="2" stroke="#3b2314"/><use fill="#FFF" xlink:href="#c"/><circle cx="13.5" cy="9.5" r="2" stroke="#3b2314"/><g><use fill="#FFF" xlink:href="#d"/><circle cx="20.5" cy="6.5" r="2" stroke="#3b2314"/></g></g></svg>