<svg xmlns="http://www.w3.org/2000/svg" width="40" height="29"><path fill="#3b2314" d="M36.6 11.78V4.21A4.16 4.16 0 0 0 32.44.05H7.49a4.16 4.16 0 0 0-4.16 4.16v7.57A4.17 4.17 0 0 0 0 15.85V27.5a.83.83 0 0 0 1.66 0V25h36.6v2.5a.83.83 0 0 0 1.66 0V15.86a4.17 4.17 0 0 0-3.32-4.08zM4.98 4.21a2.5 2.5 0 0 1 2.5-2.5h24.95a2.5 2.5 0 0 1 2.5 2.5v7.49h-2.3c.17-.46.2-.96.09-1.44l-.84-3.33a2.5 2.5 0 0 0-2.42-1.89h-5.35a2.5 2.5 0 0 0-2.5 2.5v3.32c0 .3.06.57.16.84h-3.64c.1-.26.16-.54.16-.84V7.54a2.5 2.5 0 0 0-2.5-2.5h-5.35a2.5 2.5 0 0 0-2.42 1.9l-.83 3.32c-.13.48-.08.98.08 1.44H4.99V4.2zm25.97 7.17a.83.83 0 0 1-.65.32h-6.19a.83.83 0 0 1-.83-.84V7.54c0-.46.37-.83.83-.83h5.35a.83.83 0 0 1 .81.63l.83 3.32c.07.25.01.51-.15.72zM16.63 7.54v3.32c0 .46-.37.83-.83.83H9.61a.83.83 0 0 1-.65-.32.83.83 0 0 1-.15-.7l.83-3.34a.84.84 0 0 1 .8-.63h5.36c.46 0 .83.38.83.84zm21.63 15.8H1.66v-1.66h36.6v1.66zm0-3.33H1.66v-4.16a2.5 2.5 0 0 1 2.5-2.5h31.6a2.5 2.5 0 0 1 2.5 2.5v4.16z"/></svg>