<svg xmlns="http://www.w3.org/2000/svg" width="40" height="22"><path fill="#3b2314" d="M36.44 4.44a3.5 3.5 0 0 0-1.77.5v-.5c0-2.95-1.5-4.44-4.45-4.44H9.78C6.83 0 5.33 1.5 5.33 4.44v.5a3.6 3.6 0 0 0-1.77-.5A3.56 3.56 0 0 0 0 8v7.11a3.56 3.56 0 0 0 3.56 3.56h1.77v1.77c0 .5.4.9.9.9a.9.9 0 0 0 .88-.9v-1.77H32.9v1.77c0 .5.4.9.89.9s.89-.4.89-.9v-1.77h1.77A3.56 3.56 0 0 0 40 15.1V8a3.56 3.56 0 0 0-3.56-3.56zm-29.33 0c0-1.96.7-2.66 2.67-2.66h20.44c1.97 0 2.67.7 2.67 2.66v6.23H7.1V4.44zm31.11 10.67c0 .99-.8 1.78-1.78 1.78H3.56c-.98 0-1.78-.8-1.78-1.78V8a1.78 1.78 0 0 1 3.56 0v4.44h29.33V8c0-.98.8-1.78 1.77-1.78.98 0 1.78.8 1.78 1.78v7.11z"/></svg>