<svg xmlns="http://www.w3.org/2000/svg" width="40" height="24"><path fill="#3b2314" d="M40 10.72a4 4 0 0 0-4-4H21.33c-3.38 0-4.04-.8-5.25-2.24l-.46-.54C12.33.14 6.72-.42 3.12 2.67a6.83 6.83 0 0 0-.45.42 7.27 7.27 0 0 0-2 5.16v2.88a3.97 3.97 0 0 0-.67 2.2c0 .7.19 1.37.54 1.97A2.98 2.98 0 0 0 0 17a3 3 0 0 0 2.67 2.97v3.36c0 .37.3.67.66.67h1.34a.67.67 0 0 0 .63-.45L6.49 20h27.7l1.18 3.54c.09.28.34.46.63.46h1.33a.67.67 0 0 0 .67-.67v-3.51a3 3 0 0 0 2-2.77v-6.33zM2 8.25a6.04 6.04 0 0 1 1.98-4.56c3.05-2.63 7.82-2.12 10.64 1.13l.43.51c1.27 1.52 2.28 2.72 6.28 2.72H36a2.67 2.67 0 0 1 2.67 2.66v3.8A2.98 2.98 0 0 0 37 14H7.94v-.02a4 4 0 0 0-4.42-4.62l-.14.03c-.12.01-.23.04-.34.06l-.14.04-.41.14-.03.01a4.04 4.04 0 0 0-.44.22L2 9.87V8.25zm-.13 3.5c.12-.16.25-.3.4-.43l.07-.06c.12-.1.26-.18.4-.26l.12-.07a2.61 2.61 0 0 1 .4-.15l.16-.04c.19-.05.38-.07.58-.07a2.67 2.67 0 0 1 2.67 2.66c0 .23-.04.45-.1.67H3c-.52 0-1.01.15-1.44.38a2.57 2.57 0 0 1-.23-1.05c0-.53.16-1.02.43-1.44l.1-.14zm2.32 10.92H4v-2.62h1.06l-.87 2.62zm32.48 0h-.19L35.6 20h1.08v2.67zm.33-4H3a1.67 1.67 0 0 1-1.4-2.57l.1-.1.16-.16a.28.28 0 0 0 .01 0l.07-.06.14-.11.07-.04.06-.04.16-.08.1-.03.07-.02.13-.04c.11-.02.22-.04.33-.04h34c.91 0 1.65.74 1.66 1.65A1.67 1.67 0 0 1 37 18.67z"/></svg>