<svg id="Layer_1" xmlns="http://www.w3.org/2000/svg" width="320" height="128">
	<path fill="#F4A76D" d="M34.6 68.2l-8.1-23c-.3-.7-1-1.2-1.7-1.2H9.9c-.8 0-1.5.5-1.7 1.2l-8.1 23c-.3 1 .2 2 1.1 2.3.2.1.4.1.6.1h.7v5.9c0 1 .8 1.8 1.8 1.8s1.8-.8 1.8-1.8v-5.9h5.6v53.8H8c-1 0-1.8.8-1.8 1.8S7 128 8 128h18.6c1 0 1.8-.8 1.8-1.8s-.8-1.8-1.8-1.8h-3.8V70.6h10c1 0 1.8-.8 1.8-1.8.1-.2.1-.4 0-.6zm-15.4 56.2h-3.7V70.6h3.7v53.8zM21 67H4.4l6.8-19.3h12.3L30.3 67H21z"/>
	<path fill="#F4A76D" d="M86.3 85.2c-1.1 0-2.1.2-3 .6-1-7.4-7.4-13.2-15.2-13.2H53.9c-7.7 0-14.1 5.7-15.2 13.2A7.7 7.7 0 0 0 28 92.9v.2c0 2.6 1.4 5.1 3.7 6.4v4.7c0 7.3 4.8 13.5 11.3 15.7l-2.3 5.7c-.4.9.1 2 1 2.4.2.1.5.1.7.1h8.1c.6 0 1.1-.3 1.5-.8l4.8-6.6h8.5l4.8 6.6c.3.5.9.8 1.5.8h8.1c1 0 1.8-.8 1.8-1.8 0-.2 0-.5-.1-.7l-2.3-5.7c6.6-2.2 11.3-8.4 11.3-15.7v-4.7a7.4 7.4 0 0 0 3.7-6.4v-.2c-.1-4.2-3.6-7.7-7.8-7.7zm-36.8 39.2h-4.4l1.5-3.8c.5 0 1 .1 1.5.1h4c.1 0-2.6 3.7-2.6 3.7zm23 0l-2.7-3.7h4c.5 0 1 0 1.5-.1l1.5 3.8h-4.3zm17.8-31.3c0 2.1-1.7 3.8-3.8 3.8-1 0-1.8.8-1.8 1.8s.8 1.8 1.8 1.8h.1v3.7c0 7.1-5.8 12.9-12.9 12.9H48.2c-7.1 0-12.9-5.8-12.9-12.9v-3.7h.1c1 0 1.8-.8 1.8-1.8s-.8-1.8-1.8-1.8a3.8 3.8 0 0 1-3.8-3.8v-.2c0-2.2 1.8-4 4-4s4 1.8 4 4v10.6c0 5.1 4.1 9.2 9.2 9.2h3.4c1 0 1.8-.8 1.8-1.8s-.8-1.8-1.8-1.8h-3.4c-3 0-5.5-2.5-5.5-5.5V92.9c0-1.5-.4-2.9-1.1-4V88c0-6.4 5.2-11.6 11.6-11.6H68c6.4 0 11.6 5.2 11.6 11.6v.9c-.8 1.2-1.1 2.6-1.1 4v10.6c0 3-2.5 5.5-5.5 5.5h-5.9c-1 0-1.9.8-1.9 1.8s.8 1.9 1.8 1.9h6c5.1 0 9.2-4.1 9.2-9.2V92.9c0-2.2 1.8-4 4-4s4 1.8 4 4l.1.2z"/>
	<path fill="#F4A76D" d="M71 92.2c-.3-.3-.8-.5-1.3-.5s-1 .2-1.3.5c-.3.3-.5.8-.5 1.3s.2 1 .5 1.3c.3.3.8.5 1.3.5s1-.2 1.3-.5c.3-.3.5-.8.5-1.3.1-.4-.1-.9-.5-1.3zm-17.4 0c-.3-.3-.8-.5-1.3-.5s-1 .2-1.3.5c-.3.3-.5.8-.5 1.3s.2 1 .5 1.3c.3.3.8.5 1.3.5s1-.2 1.3-.5c.3-.3.5-.8.5-1.3 0-.4-.2-.9-.5-1.3zM5.7 82c-.3-.3-.8-.5-1.3-.5s-1 .2-1.3.5c-.3.3-.5.8-.5 1.3s.2 1 .5 1.3c.3.3.8.5 1.3.5s1-.2 1.3-.5c.3-.3.5-.8.5-1.3s-.1-1-.5-1.3zm55.6 27.5c-.3-.3-.8-.5-1.3-.5s-1 .2-1.3.5c-.3.3-.5.8-.5 1.3s.2 1 .5 1.3c.3.3.8.5 1.3.5s1-.2 1.3-.5c.3-.3.5-.8.5-1.3.1-.5-.1-.9-.5-1.3z"/>
	<g>
		<path fill="#F4A76D" d="M313.2 89.3V69.5c0-11.2-9.1-20.4-20.4-20.4h-27.7c-1.4 0-2.5 1.1-2.5 2.5s1.1 2.5 2.5 2.5h27.7c8.5 0 15.4 6.9 15.4 15.4v16.2c-2.5-1.3-5.2-2.2-8-2.5V74c0-5.3-4.3-9.7-9.7-9.7h-28.2c-2.7 0-5.3 1.2-7.2 3.2-1.8-2-4.4-3.2-7.2-3.2h-28.2A9.7 9.7 0 0 0 210 74v9.4a21 21 0 0 0-6.5 2.3V69.5c0-8.5 6.9-15.4 15.4-15.4H243c1.4 0 2.5-1.1 2.5-2.5s-1.1-2.5-2.5-2.5h-24.1c-11.2 0-20.4 9.1-20.4 20.4v19.8c-4.2 4-6.8 9.7-6.8 15.9v20.4c0 1.4 1.1 2.5 2.5 2.5h123c1.4 0 2.5-1.1 2.5-2.5v-20.4c.3-6.2-2.3-11.8-6.5-15.9zM257.8 74c0-2.6 2.1-4.7 4.7-4.7h28.2c2.6 0 4.7 2.1 4.7 4.7v9.1h-37.5V74zm-37.9-4.7h28.2c2.6 0 4.7 2.1 4.7 4.7v9.1h-37.5V74c0-2.6 2.1-4.7 4.6-4.7zm95.1 53.8H197v-17.9c0-9.5 7.7-17.1 17.1-17.1h83.7c9.5 0 17.1 7.7 17.1 17.1v17.9z"/>
		<path fill="#F4A76D" d="M257 49.8c-.5-.5-1.1-.7-1.8-.7s-1.3.3-1.8.7c-.5.5-.7 1.1-.7 1.8s.3 1.3.7 1.8c.5.5 1.1.7 1.8.7s1.3-.3 1.8-.7c.5-.5.7-1.1.7-1.8s-.2-1.3-.7-1.8zm27.3 50.8H208c-1.4 0-2.5 1.1-2.5 2.5s1.1 2.5 2.5 2.5h76.3c1.4 0 2.5-1.1 2.5-2.5s-1.1-2.5-2.5-2.5zm10.2 0c-1.4 0-2.6 1.1-2.6 2.5s1.1 2.5 2.5 2.5h.1c1.4 0 2.5-1.1 2.5-2.5s-1.2-2.5-2.5-2.5zM284 .1h-56c-1.4 0-2.5 1.1-2.5 2.5v30c0 1.4 1.1 2.5 2.5 2.5h56c1.4 0 2.5-1.1 2.5-2.5v-30c0-1.4-1.1-2.5-2.5-2.5zm-42.7 30l10.6-10.6 9.6 9.6 1 1h-21.2zm28.2 0l-2.8-2.8 4.2-4.2 7 7h-8.4zm12-3.5l-8.7-8.7c-1-1-2.6-1-3.5 0l-6 6-9.6-9.6c-1-1-2.6-1-3.5 0l-15.9 15.9h-3.7v-25h51v21.4z"/>
		<path fill="#F4A76D" d="M238.9 10.2h-2.6c-1.4 0-2.5 1.1-2.5 2.5s1.1 2.5 2.5 2.5h2.6c1.4 0 2.5-1.1 2.5-2.5s-1.1-2.5-2.5-2.5zm24.3-3h-2.6c-1.4 0-2.5 1.1-2.5 2.5s1.1 2.5 2.5 2.5h2.6c1.4 0 2.5-1.1 2.5-2.5s-1.1-2.5-2.5-2.5z"/>
	</g>
	<path fill="#F4A76D" d="M168.5 85c-.3.5-.1 1.1.4 1.3l2.8 1.6H113a1 1 0 0 0-1 1c0 .5.4 1 1 1h58.7l-2.8 1.6c-.5.3-.6.9-.4 1.3.3.5.9.6 1.4.3l5.7-3.5c.6-.4.6-1.3 0-1.7l-5.7-3.5c-.5-.1-1.1.1-1.4.6z"/>
</svg>