<svg xmlns="http://www.w3.org/2000/svg" width="80" height="80">
	<g fill="#3b2314">
		<path d="M49.66 50.19h-2.64v-1.32a2.63 2.63 0 0 0-2.63-2.63h-2.64V34.31a17.12 17.12 0 1 0-18.38-15.75 17.12 17.12 0 0 0 15.75 15.75v11.92h-3.95c-.35 0-.68.13-.93.38L23.32 57.54v-.77c0-.73-.6-1.32-1.32-1.32h-2.63v-1.31c0-.73-.6-1.32-1.32-1.32h-2.63v-2.7A13.17 13.17 0 1 0 1 38.33a13.17 13.17 0 0 0 11.78 11.79v2.7H7.52c-.35 0-.69.14-.93.39L0 59.79l1.86 1.86 6.2-6.2h8.67v5.27H14.1V58.1h-2.63v11.3l-4.89 4.89a1.32 1.32 0 0 0-.38.93v2.63c0 .73.59 1.32 1.31 1.32h21.07c.36 0 .69-.14.94-.39l4.88-4.88h15.26a3.95 3.95 0 0 0 3.95-3.95v-15.8a3.95 3.95 0 0 0-3.95-3.95zM3.55 37.02a10.53 10.53 0 1 1 21.07 0 10.53 10.53 0 0 1-21.07 0zm22.4-19.76a14.48 14.48 0 1 1 28.96 0 14.48 14.48 0 0 1-28.97 0zm-6.6 40.83h1.32v2.09l-1.31 1.31v-3.4zm-5.26 5.26h3.4l-3.4 3.41v-3.4zm13.94 13.17H8.84v-.77L22 62.58l10 10-3.96 3.94zm11.08-5.26H34.4L23.86 60.72l11.86-11.85h8.67v11.85h-2.64v-5.27h-2.63v15.8zm11.85-1.32c0 .73-.59 1.32-1.32 1.32h-7.9v-2.64h9.22v1.32zm0-3.95h-9.22v-2.63h9.22v2.63zm0-5.27h-3.95V58.1h3.95v2.63zm0-5.27h-3.95v-2.63h2.63c.73 0 1.32.59 1.32 1.32v1.31z"/>
		<path d="M47.4 8.43L35.18 20.67l-4.34-4.34-1.86 1.87 5.27 5.26a1.32 1.32 0 0 0 1.86 0L49.27 10.3 47.4 8.43zm24.64 45.7H68.1v-2.7a13.19 13.19 0 0 0 11.85-13.1 13.17 13.17 0 1 0-26.33 0 13.17 13.17 0 0 0 11.85 13.1v2.7a2.63 2.63 0 0 0-2.64 2.64v1.32H60.2a3.95 3.95 0 0 0-3.95 3.95v17.12h2.63v-2.64h9.22v2.64h2.63V60.72H68.1v2.63h-2.63v-6.58h6.04l6.2 6.2 1.86-1.86-6.59-6.59a1.32 1.32 0 0 0-.93-.38zm-13.17 7.9c0-.72.6-1.3 1.32-1.3h2.63v2.62h-3.95v-1.31zM68.1 73.9h-9.22v-2.63h9.22v2.63zm0-7.9v2.63h-9.22V66h9.22zM56.24 38.33a10.53 10.53 0 1 1 21.07 0 10.53 10.53 0 0 1-21.07 0z"/>
		<path d="M62.82 40.42L59.8 37.4l-1.86 1.87 3.95 3.94a1.32 1.32 0 0 0 1.86 0l9.88-9.87-1.86-1.86-8.95 8.94zm-52.67-1.31l-3.02-3.02-1.86 1.86 3.95 3.95a1.32 1.32 0 0 0 1.86 0l9.88-9.88-1.87-1.86-8.94 8.95z"/>
	</g>
</svg>