<svg xmlns="http://www.w3.org/2000/svg" width="88" height="57">
	<g fill="#3b2314">
		<path d="M81.84 23.61l-2.28-9.12a1.38 1.38 0 0 0 1.1-1.34v-1.47a5.8 5.8 0 0 0-5.8-5.79H64.48V2.86A2.85 2.85 0 0 0 61.64 0H8.73a2.85 2.85 0 0 0-2.85 2.85v24.98a1.38 1.38 0 0 0 2.76 0V2.86c0-.05.04-.1.09-.1h52.9c.06 0 .1.05.1.1v24.98a1.38 1.38 0 0 0 2.75 0v-1.56h16.27a4.5 4.5 0 0 1 4.28 3.12h-4.29c-.76 0-1.37.62-1.37 1.38v2.94a4.32 4.32 0 0 0 4.31 4.32h1.56v6.06h-3.6a8.74 8.74 0 0 0-16.5 0h-.66V33.72a1.38 1.38 0 0 0-2.75 0V44.1H33.14a8.74 8.74 0 0 0-16.5 0H8.74a.1.1 0 0 1-.1-.09v-3.03h5.97a1.38 1.38 0 0 0 0-2.76H1.38a1.38 1.38 0 0 0 0 2.76h4.5V44a2.85 2.85 0 0 0 2.85 2.85h7.44v.09a8.74 8.74 0 0 0 17.45 0v-.1h31.05v.1a8.74 8.74 0 0 0 17.45 0v-.1h4.5c.76 0 1.38-.6 1.38-1.37v-14.7a7.27 7.27 0 0 0-6.16-7.17zM64.48 8.64h10.38a3.04 3.04 0 0 1 3.04 3.04v.09H64.48V8.64zm0 14.88v-9h12.25l2.25 9h-14.5zM24.9 52.92a5.98 5.98 0 0 1-5.97-5.97 5.98 5.98 0 0 1 5.97-5.97 5.98 5.98 0 0 1 5.97 5.97 5.98 5.98 0 0 1-5.97 5.97zm48.5 0a5.98 5.98 0 0 1-5.97-5.97 5.98 5.98 0 0 1 5.97-5.97 5.98 5.98 0 0 1 5.97 5.97 5.98 5.98 0 0 1-5.97 5.97zm11.85-17.64h-1.56c-.86 0-1.56-.7-1.56-1.56v-1.56h3.12v3.12z"/>
		<path d="M24.9 44.1a2.85 2.85 0 0 0-2.85 2.85 2.85 2.85 0 0 0 2.84 2.85 2.85 2.85 0 0 0 2.85-2.85 2.85 2.85 0 0 0-2.85-2.85zm48.5 0a2.85 2.85 0 0 0-2.85 2.85 2.85 2.85 0 0 0 2.84 2.85 2.85 2.85 0 0 0 2.85-2.85 2.85 2.85 0 0 0-2.85-2.85zm-16.17-5.88H36.65a1.38 1.38 0 0 0 0 2.76h20.58a1.38 1.38 0 0 0 0-2.76zm-35.28-5.88H4.32a1.38 1.38 0 0 0 0 2.76h17.63a1.38 1.38 0 0 0 0-2.76zm25.96-18.7a1.38 1.38 0 0 0-1.94 0L33.7 25.9l-6.37-6.37a1.38 1.38 0 1 0-1.95 1.95l7.35 7.35a1.37 1.37 0 0 0 1.95 0L47.9 15.59a1.38 1.38 0 0 0 0-1.95z"/>
	</g>
</svg>