<svg xmlns="http://www.w3.org/2000/svg" width="80" height="80">
	<g fill="#3b2314">
		<path d="M78.13 69.6L57.27 48.74a31.3 31.3 0 1 0-43.43 8.53 31.3 31.3 0 0 0 34.9 0l20.84 20.85a6.04 6.04 0 0 0 8.54-8.54zm-46.8-9.67a28.6 28.6 0 1 1 0-57.21 28.6 28.6 0 0 1 0 57.21zm44.92 16.31a3.37 3.37 0 0 1-2.4 1 3.35 3.35 0 0 1-2.38-1l-20.3-20.3 4.77-4.77 20.3 20.3a3.37 3.37 0 0 1 0 4.77z"/>
		<path d="M32.03 5.39l-.07 2.66a23.23 23.23 0 0 1 17.61 8.8l2.08-1.65a25.9 25.9 0 0 0-19.62-9.81zM53.6 18l-2.29 1.37c.5.82.94 1.68 1.33 2.56l2.43-1.08A26.15 26.15 0 0 0 53.6 18z"/>
	</g>
</svg>