<svg xmlns="http://www.w3.org/2000/svg" width="80" height="80" viewBox="0 0 80 80">
  <g fill="#3b2314" fill-rule="nonzero">
    <path d="M23.237 53.273h46.87L79.99 8.127H13.424L11.698.161H0v2.655h9.552l3.46 15.934H2.656v2.655h10.938l1.726 7.967h-4.698v2.656h5.281l1.726 7.967H5.311v2.655h12.901l4.618 21.245h47.543V61.24H24.971l-1.734-7.967zm20.58-2.656h-5.352l-.248-7.967h5.6v7.967zm0-10.622h-5.684l-.248-7.967h5.932v7.967zm0-10.623h-6.016l-.248-7.967h6.264v7.967zm24.166 21.245h-5.4l.996-7.967h6.141l-1.737 7.967zm-.42-39.834h9.128L74.95 18.75h-8.382l.995-7.967zm-1.33 10.622h8.133l-1.735 7.967h-7.393l.995-7.967zm5.81 10.623L70.3 39.995h-6.389l.995-7.967h7.136zM55.725 10.783h9.162l-.996 7.967h-8.415l.25-7.967zm-.331 10.622h8.164l-.997 7.967h-7.417l.25-7.967zm-.331 10.623h7.17l-.996 7.967h-6.424l.25-7.967zM54.73 42.65h6.173l-.996 7.967H54.48l.25-7.967zm-8.258-31.867h6.598l-.25 7.967h-6.348v-7.967zm0 10.622h6.266l-.248 7.967h-6.018v-7.967zm0 10.623h5.934l-.248 7.967h-5.686v-7.967zm0 10.622h5.602l-.248 7.967h-5.354V42.65zm-2.656-31.867v7.967H37.47l-.248-7.967h6.596zm-8.006 39.834h-5.427l-.996-7.967h6.173l.25 7.967zm-.332-10.622h-6.423l-.996-7.967h7.17l.249 7.967zm-.332-10.623h-7.419l-.995-7.967h8.164l.25 7.967zm-.58-18.589l.247 7.967H26.4l-.996-7.967h9.162zM15.733 18.75l-1.73-7.967h8.728l.995 7.967h-7.993zm2.31 10.622l-1.731-7.967h7.745l.996 7.967h-7.01zm.578 2.656h6.764l.996 7.967h-6.028l-1.732-7.967zm4.042 18.59l-1.726-7.968h5.776l.996 7.967h-5.046zM31.867 66.55a6.64 6.64 0 1 0 6.64 6.64 6.647 6.647 0 0 0-6.64-6.64zm0 10.623a3.983 3.983 0 1 1 0-7.967 3.983 3.983 0 0 1 0 7.967z"/>
    <path d="M0 29.372h5.311v2.656H0zM61.079 66.55a6.64 6.64 0 1 0 6.639 6.64 6.647 6.647 0 0 0-6.64-6.64zm0 10.623a3.983 3.983 0 1 1 0-7.967 3.983 3.983 0 0 1 0 7.967z"/>
  </g>
</svg>
