<?xml version="1.0" encoding="utf-8"?>
<!-- Generator: Adobe Illustrator 22.0.1, SVG Export Plug-In . SVG Version: 6.00 Build 0)  -->
<svg version="1.1" id="Layer_1" xmlns="http://www.w3.org/2000/svg" xmlns:xlink="http://www.w3.org/1999/xlink" x="0px" y="0px"
	 viewBox="0 0 145.8 50.4" style="enable-background:new 0 0 145.8 50.4;" xml:space="preserve">
<style type="text/css">
	.st0{fill:#3C2415;}
	.st1{fill:#C2B59B;}
	.st2{fill:#FFFFFF;}
	.st3{fill:#A97C50;}
	.st4{fill:#F4A76D;}
</style>
<g>
	<g>
		<g>
			<path class="st4" d="M34.8,18.6c-3.8,4.1-5.7,9-5.7,14.6c-2.8,0-5.6,0-8.4,0c-0.1-5.6-1.9-10.4-5.7-14.5c0.8-1.5,3.7-2.6,6.1-1.4
				c1.6,0.8,2.6,2.1,2.8,4c0.2,1.8-0.4,3.3-1.6,4.6c0.9,0.5,1.7,0.9,2.6,1.3c0.8-0.4,1.7-0.8,2.6-1.3c-1.5-1.4-2-3.1-1.6-5
				c0.3-1.3,1-2.4,2.2-3.1C30.3,16.1,33.4,16.7,34.8,18.6z M20.4,25.6c0.9,0,2.3-1.4,2.5-3.1c0.3-2.2-1-3.8-2.7-4.5
				c-1.4-0.6-3.3-0.1-3.8,0.7C18.1,20.7,19.5,23,20.4,25.6z M33.3,18.6c-0.2-0.1-0.3-0.2-0.4-0.3c-1.3-0.8-2.6-0.8-3.9-0.1
				c-1.5,0.8-2.2,2-2.3,3.6c0,1.6,0.7,2.8,2.1,3.6c0.3,0.2,0.4,0.1,0.6-0.2c0.6-1.8,1.5-3.4,2.6-4.9C32.4,19.8,32.8,19.2,33.3,18.6z
				 M24.8,28.5c-1.1,1-1.7,2.1-2,3.5c1.4,0,2.7,0,4,0C26.5,30.7,25.9,29.5,24.8,28.5z M28.8,26.6c-1.1,0.1-2.2,0.5-3.1,1.2
				c1.1,1.2,1.9,2.5,2.3,4.2C28.2,30.2,28.5,28.4,28.8,26.6z M20.8,26.6c0.3,1.8,0.6,3.6,0.9,5.4c0.4-1.6,1.1-3,2.3-4.2
				C23,27.2,22,26.8,20.8,26.6z"/>
		</g>
		<g>
			<g>
				<path class="st4" d="M30.4,8.2c-0.1,0.2,0,0.5,0.2,0.6c0.1,0.1,0.2,0.1,0.3,0.1c0.1,0,0.2,0,0.3-0.1c0,0,3.8-3.7,9.4-1.9
					c0.2,0.1,0.5-0.1,0.6-0.3c0.1-0.3-0.1-0.5-0.3-0.6c-4.2-1.4-7.4,0-9.1,1.1c0.7-3.3-1.2-6.1-1.3-6.2c-0.1-0.2-0.4-0.3-0.7-0.1
					c-0.2,0.1-0.3,0.4-0.1,0.7C29.7,1.4,32.1,4.8,30.4,8.2z"/>
				<path class="st4" d="M33.1,4.6c0,0.2,0,0.4,0.2,0.5c0.1,0.1,0.2,0.1,0.3,0.1c0.1,0,0.2,0,0.2-0.1c0,0,1.5-0.9,3.9-0.5
					c0.3,0,0.5-0.1,0.6-0.4c0-0.3-0.1-0.5-0.4-0.6c-1.7-0.3-3,0-3.8,0.3c0-1.4-0.8-2.4-0.8-2.4c-0.2-0.2-0.5-0.2-0.7-0.1
					c-0.2,0.2-0.2,0.5-0.1,0.7C32.5,2.1,33.3,3.2,33.1,4.6z"/>
				<path class="st4" d="M9.2,6.8c5.7-1.8,9.3,1.8,9.4,1.9c0.1,0.1,0.2,0.1,0.3,0.1c0.1,0,0.2,0,0.3-0.1c0.2-0.1,0.3-0.4,0.2-0.6
					c-1.6-3.4,0.7-6.8,0.7-6.9c0.1-0.2,0.1-0.5-0.1-0.7c-0.2-0.1-0.5-0.1-0.7,0.1c-0.1,0.1-2,3-1.3,6.2c-1.7-1.1-4.9-2.5-9.1-1.1
					C8.7,6,8.5,6.2,8.6,6.5C8.7,6.7,9,6.9,9.2,6.8z"/>
				<path class="st4" d="M12.2,4.6c2.3-0.4,3.9,0.5,3.9,0.5c0.1,0,0.2,0.1,0.2,0.1c0.1,0,0.2,0,0.3-0.1c0.2-0.1,0.2-0.3,0.2-0.5
					c-0.3-1.4,0.5-2.5,0.6-2.5c0.2-0.2,0.1-0.5-0.1-0.7c-0.2-0.2-0.5-0.1-0.7,0.1c0,0-0.8,1-0.8,2.4C15,3.7,13.7,3.4,12,3.7
					c-0.3,0-0.4,0.3-0.4,0.6C11.7,4.5,11.9,4.7,12.2,4.6z"/>
				<path class="st4" d="M45.3,18.3c0,0.2,0,0.3,0.1,0.5c0.1,0.1,0.3,0.2,0.5,0.1c0.5-0.1,1.8-0.4,2.4,0.2c0.1,0.1,0.2,0.2,0.3,0.2
					c0.1,0,0.2,0,0.3-0.1c0.2-0.2,0.2-0.5,0-0.7c-0.7-0.8-1.9-0.8-2.6-0.7c0.7-3.6-0.3-6-0.4-6.2c-0.1-0.2-0.4-0.4-0.6-0.2
					c-0.2,0.1-0.4,0.4-0.3,0.6C45.2,12,46.2,14.7,45.3,18.3z"/>
				<path class="st4" d="M1,19.3c0.1,0,0.3-0.1,0.3-0.2c0.6-0.6,1.9-0.4,2.4-0.2c0.2,0.1,0.3,0,0.5-0.1c0.1-0.1,0.2-0.3,0.1-0.5
					c-0.9-3.6,0.1-6.2,0.1-6.3c0.1-0.2,0-0.5-0.2-0.6c-0.2-0.1-0.5,0-0.6,0.2c0,0.1-1.1,2.6-0.4,6.2c-0.8-0.1-1.9-0.1-2.6,0.7
					c-0.2,0.2-0.2,0.5,0,0.7C0.7,19.2,0.9,19.3,1,19.3z"/>
				<path class="st4" d="M19.2,42c0.1-0.2,0-0.5-0.2-0.6c-0.2-0.1-0.4-0.1-0.6,0.1c-0.2,0.2-3.8,3.7-9.4,1.9
					c-0.2-0.1-0.5,0.1-0.6,0.3c-0.1,0.3,0.1,0.5,0.3,0.6c4.2,1.4,7.4,0,9.1-1.1c-0.7,3.3,1.2,6.1,1.3,6.2c0.1,0.1,0.2,0.2,0.4,0.2
					c0.1,0,0.2,0,0.3-0.1c0.2-0.1,0.3-0.4,0.1-0.7C19.9,48.8,17.6,45.4,19.2,42z"/>
				<path class="st4" d="M16.6,45.5c0-0.2,0-0.4-0.2-0.5c-0.2-0.1-0.4-0.1-0.5,0c0,0-1.6,0.9-3.9,0.5c-0.3,0-0.5,0.1-0.6,0.4
					c0,0.3,0.1,0.5,0.4,0.6c1.7,0.3,3,0,3.8-0.3c0,1.4,0.8,2.4,0.8,2.4c0.1,0.1,0.2,0.2,0.4,0.2c0.1,0,0.2,0,0.3-0.1
					c0.2-0.2,0.2-0.5,0.1-0.7C17.1,48,16.3,47,16.6,45.5z"/>
				<path class="st4" d="M40.4,43.4c-5.7,1.8-9.3-1.8-9.4-1.9c-0.2-0.2-0.4-0.2-0.6-0.1c-0.2,0.1-0.3,0.4-0.2,0.6
					c1.6,3.4-0.7,6.8-0.7,6.9c-0.1,0.2-0.1,0.5,0.1,0.7c0.1,0.1,0.2,0.1,0.3,0.1c0.2,0,0.3-0.1,0.4-0.2c0.1-0.1,2-3,1.3-6.2
					c1.7,1.1,4.9,2.5,9.1,1.1c0.3-0.1,0.4-0.3,0.3-0.6C40.9,43.4,40.7,43.3,40.4,43.4z"/>
				<path class="st4" d="M37.5,45.5C35.1,46,33.6,45,33.6,45c-0.2-0.1-0.4-0.1-0.5,0c-0.2,0.1-0.2,0.3-0.2,0.5
					c0.3,1.4-0.5,2.5-0.6,2.5c-0.2,0.2-0.1,0.5,0.1,0.7c0.1,0.1,0.2,0.1,0.3,0.1c0.1,0,0.3-0.1,0.4-0.2c0,0,0.8-1,0.8-2.4
					c0.8,0.3,2.1,0.6,3.8,0.3c0.3,0,0.4-0.3,0.4-0.6C38,45.7,37.7,45.5,37.5,45.5z"/>
				<path class="st4" d="M4.3,31.9c0-0.2,0-0.3-0.1-0.5c-0.1-0.1-0.3-0.2-0.5-0.1c0,0-1.7,0.5-2.4-0.2c-0.2-0.2-0.5-0.2-0.7,0
					c-0.2,0.2-0.2,0.5,0,0.7c0.7,0.8,1.9,0.8,2.6,0.7c-0.7,3.6,0.3,6,0.4,6.2c0.1,0.2,0.3,0.3,0.4,0.3c0.1,0,0.1,0,0.2,0
					c0.2-0.1,0.4-0.4,0.2-0.6C4.5,38.1,3.4,35.5,4.3,31.9z"/>
				<path class="st4" d="M48.3,31.1c-0.6,0.6-1.9,0.4-2.4,0.2c-0.2-0.1-0.3,0-0.5,0.1c-0.1,0.1-0.2,0.3-0.1,0.5
					c0.9,3.6-0.1,6.2-0.1,6.3c-0.1,0.2,0,0.5,0.2,0.6c0.1,0,0.1,0,0.2,0c0.2,0,0.4-0.1,0.4-0.3c0-0.1,1.1-2.6,0.4-6.2
					c0.8,0.1,1.9,0.1,2.6-0.7c0.2-0.2,0.2-0.5,0-0.7C48.8,30.9,48.5,30.9,48.3,31.1z"/>
				<path class="st4" d="M48.7,25.1c-0.1-0.1-0.2-0.1-0.3-0.2c0.1-0.1,0.2-0.1,0.3-0.2c0.7-0.6,1-1.4,1-2.2c0-1-0.7-2-1.6-2.3
					c-1-0.3-2.2,0.2-2.6,1.1c-0.1,0.2,0,0.5,0.3,0.6c0.2,0.1,0.5,0,0.6-0.3c0.2-0.5,0.9-0.8,1.4-0.6c0.5,0.2,0.9,0.8,1,1.4
					c0,0.6-0.2,1.1-0.7,1.5c-0.5,0.4-1.1,0.5-1.7,0.4c-1.9-0.4-2.5-2.6-2.7-3.6c-0.2-1.3-0.2-2.6-0.1-3.9c0-0.9,0.1-1.9,0-2.8
					c-0.2-2.5-1.3-4.5-3.2-5.4c-2.8-1.4-6.1-0.6-9.3,2.3c-1.8-0.8-3.8-1.3-5.8-1.3c0-0.9-0.1-3.1,0.6-3.9c0.4-0.5,1.2-0.9,1.8-0.5
					c0.2,0.1,0.4,0.4,0.4,0.6c0,0.2,0,0.5-0.2,0.7c-0.3,0.4-0.7,0.2-0.8,0.2c-0.2-0.1-0.5,0-0.6,0.2c-0.1,0.2,0,0.5,0.2,0.6
					c0.7,0.4,1.5,0.2,2-0.4c0.3-0.4,0.4-0.9,0.3-1.4c-0.1-0.5-0.4-1-0.9-1.3c-0.2-0.1-0.3-0.2-0.5-0.2c0.1-0.2,0.2-0.4,0.2-0.7
					c0.1-1-0.7-1.5-1.5-2c-0.5-0.4-1-0.7-1.2-1.2c0,0,0,0,0,0c0,0,0,0,0,0c0,0,0,0,0,0c0,0,0,0,0,0c0,0,0,0,0,0c0,0,0,0,0,0
					c0,0,0,0,0,0c0,0,0,0,0,0c0,0,0,0-0.1,0c0,0,0,0,0,0c0,0,0,0,0,0c0,0,0,0-0.1,0c0,0,0,0,0,0c0,0,0,0,0,0c0,0,0,0,0,0
					c0,0,0,0,0,0c0,0,0,0-0.1,0c0,0,0,0,0,0c0,0,0,0,0,0c0,0,0,0,0,0c0,0,0,0,0,0c0,0,0,0,0,0c0,0,0,0,0,0c0,0,0,0,0,0c0,0,0,0,0,0
					c0,0,0,0,0,0c0,0,0,0,0,0c0,0,0,0,0,0c-0.2,0.5-0.7,0.8-1.2,1.2c-0.7,0.5-1.5,1-1.5,2c0,0.2,0.1,0.5,0.2,0.7
					c-0.1,0-0.3,0.1-0.4,0.2c-0.5,0.3-0.8,0.7-0.9,1.3c-0.1,0.5,0,1,0.3,1.4c0.5,0.6,1.3,0.8,2,0.4c0.2-0.1,0.3-0.4,0.2-0.6
					c-0.1-0.2-0.4-0.3-0.6-0.2c-0.1,0.1-0.5,0.2-0.8-0.2c-0.1-0.2-0.2-0.4-0.2-0.7c0-0.3,0.2-0.5,0.4-0.6c0.6-0.4,1.4,0,1.8,0.5
					c0.7,0.8,0.6,3,0.6,3.9c-2.1,0.1-4,0.5-5.8,1.3C15.4,8,12,7.2,9.3,8.6c-1.9,1-3,2.9-3.2,5.4c-0.1,1,0,1.9,0,2.8
					c0,1.4,0.1,2.6-0.1,3.9c-0.2,0.9-0.8,3.2-2.7,3.6c-0.6,0.1-1.2,0-1.7-0.4c-0.4-0.4-0.7-0.9-0.7-1.5c0-0.6,0.4-1.2,1-1.4
					c0.5-0.2,1.2,0.1,1.4,0.6C3.4,22,3.7,22.1,3.9,22c0.2-0.1,0.4-0.4,0.3-0.6c-0.4-0.9-1.6-1.5-2.6-1.1C0.7,20.5,0,21.4,0,22.5
					c0,0.9,0.4,1.7,1,2.2c0.1,0.1,0.2,0.1,0.3,0.2C1.2,25,1.1,25,1,25.1c-0.7,0.6-1,1.4-1,2.2c0,1,0.7,2,1.6,2.3
					c1,0.3,2.2-0.2,2.6-1.1c0.1-0.2,0-0.5-0.3-0.6c-0.2-0.1-0.5,0-0.6,0.3c-0.2,0.5-0.9,0.8-1.4,0.6c-0.5-0.2-0.9-0.8-1-1.4
					c0-0.6,0.2-1.1,0.7-1.5c0.5-0.4,1.1-0.5,1.7-0.4C5.2,25.8,5.8,28.1,6,29c0.2,1.3,0.2,2.6,0.1,3.9c0,0.9-0.1,1.9,0,2.8
					c0.2,2.5,1.3,4.5,3.2,5.4c0.9,0.5,1.8,0.7,2.8,0.7c2.1,0,4.3-1,6.5-3c1.8,0.8,3.7,1.2,5.8,1.3l0,0c0,0.8,0.1,3.1-0.6,3.9
					c-0.4,0.5-1.2,0.9-1.8,0.5c-0.2-0.1-0.4-0.4-0.4-0.6c0-0.2,0-0.5,0.2-0.7c0.3-0.4,0.7-0.2,0.8-0.2c0.2,0.1,0.5,0,0.6-0.2
					c0.1-0.2,0-0.5-0.2-0.6c-0.7-0.4-1.5-0.2-2,0.4c-0.3,0.4-0.4,0.9-0.3,1.4c0.1,0.5,0.4,1,0.9,1.3c0.1,0.1,0.3,0.1,0.4,0.2
					c-0.1,0.2-0.2,0.4-0.2,0.7c-0.1,1,0.7,1.5,1.5,2c0.5,0.4,1,0.7,1.2,1.2c0,0,0,0,0,0c0,0,0,0.1,0.1,0.1c0,0,0,0,0,0
					c0,0,0.1,0.1,0.1,0.1c0,0,0,0,0,0c0,0,0.1,0,0.1,0.1c0,0,0,0,0,0c0,0,0.1,0,0.1,0c0.1,0,0.1,0,0.1,0c0,0,0,0,0,0
					c0,0,0.1,0,0.1-0.1c0,0,0,0,0,0c0,0,0.1-0.1,0.1-0.1c0,0,0,0,0,0c0,0,0-0.1,0.1-0.1c0,0,0,0,0,0c0.2-0.5,0.7-0.8,1.2-1.2
					c0.7-0.5,1.5-1,1.5-2c0-0.2-0.1-0.5-0.2-0.7c0.2,0,0.3-0.1,0.5-0.2c0.5-0.3,0.8-0.7,0.9-1.3c0.1-0.5,0-1-0.3-1.4
					c-0.5-0.6-1.3-0.8-2-0.4c-0.2,0.1-0.3,0.4-0.2,0.6c0.1,0.2,0.4,0.3,0.6,0.2c0.1-0.1,0.5-0.2,0.8,0.2c0.1,0.2,0.2,0.4,0.2,0.7
					c0,0.3-0.2,0.5-0.4,0.6c-0.6,0.4-1.4,0-1.8-0.5c-0.7-0.8-0.6-3.1-0.6-3.9l0,0c2.1-0.1,4-0.5,5.8-1.3c2.1,1.9,4.4,3,6.4,3
					c1,0,1.9-0.2,2.8-0.7c1.9-1,3-2.9,3.2-5.4c0.1-1,0-1.9,0-2.8c0-1.4-0.1-2.6,0.1-3.9c0.2-0.9,0.8-3.2,2.7-3.6
					c0.6-0.1,1.2,0,1.7,0.4c0.4,0.4,0.7,0.9,0.7,1.5c0,0.6-0.4,1.2-1,1.4c-0.5,0.2-1.2-0.1-1.4-0.6c-0.1-0.2-0.4-0.4-0.6-0.3
					c-0.2,0.1-0.4,0.4-0.3,0.6c0.4,0.9,1.6,1.5,2.6,1.1c0.9-0.3,1.6-1.2,1.6-2.3C49.7,26.5,49.4,25.7,48.7,25.1z M40.1,25.2
					c-0.4,0.3-0.7,0.7-0.8,1.2c0,0.1-0.1,0.1-0.1,0.2c0,0,0,0,0,0c-0.1,0.2-0.1,0.4-0.1,0.6c-1.1,6.9-7.1,12-14.2,12
					c-7.4,0-13.5-5.2-14.4-12.3c0,0,0,0,0,0c-0.1-0.7-0.5-1.3-1-1.8C9.4,25.1,9.2,25,9,24.9c0.2-0.1,0.4-0.2,0.6-0.3
					c0.6-0.5,1.1-1.3,1-2.2c1-6.9,7-11.9,14.4-11.9c6.9,0,12.9,4.9,14.1,11.7c0,0.1,0,0.1,0.1,0.2c-0.1,0.8,0.4,1.7,1,2.2
					c0.2,0.1,0.4,0.2,0.6,0.3C40.5,25,40.3,25.1,40.1,25.2z M36.4,35.8c0.3,0.7,0.9,1.2,1.6,1.2c0.3,0,0.5-0.2,0.5-0.4
					c0-0.3-0.2-0.5-0.4-0.5c-0.3,0-0.6-0.3-0.7-0.6c-0.2-0.4-0.1-0.9,0.1-1.2c0.2-0.3,0.6-0.4,1-0.4c0.5,0,0.9,0.2,1.2,0.6
					c0.5,0.6,0.4,1.2,0.3,1.6c-0.2,0.8-0.9,1.5-1.7,1.7c-1.5,0.6-3.1-0.2-4-0.7c0.7-0.6,1.4-1.2,2-1.8
					C36.3,35.4,36.3,35.6,36.4,35.8z M12.4,35.4c-0.2,0.4-0.4,0.6-0.7,0.6c-0.3,0-0.5,0.2-0.4,0.5c0,0.3,0.2,0.5,0.5,0.4
					c0.7-0.1,1.3-0.5,1.6-1.2c0.1-0.2,0.1-0.4,0.2-0.6c0.6,0.7,1.3,1.3,2,1.8c-0.9,0.5-2.5,1.2-4,0.7c-0.8-0.3-1.4-1-1.7-1.7
					c-0.1-0.4-0.2-1,0.3-1.6c0.3-0.3,0.7-0.6,1.2-0.6c0.4,0,0.8,0.1,1,0.4C12.5,34.6,12.6,35,12.4,35.4z M13.3,14
					c-0.3-0.7-0.9-1.2-1.6-1.2c-0.3,0-0.5,0.2-0.5,0.4c0,0.3,0.2,0.5,0.4,0.5c0.3,0,0.6,0.3,0.7,0.6c0.2,0.4,0.1,0.9-0.1,1.2
					c-0.2,0.3-0.6,0.4-1,0.4c-0.5,0-0.9-0.2-1.2-0.6c-0.5-0.6-0.4-1.2-0.3-1.6c0.2-0.8,0.9-1.5,1.7-1.7c1.5-0.5,3.1,0.1,3.9,0.7
					c-0.7,0.5-1.4,1.1-2,1.7C13.4,14.3,13.3,14.1,13.3,14z M37.3,14.3c0.2-0.4,0.4-0.6,0.7-0.6c0.3,0,0.5-0.2,0.4-0.5
					c0-0.3-0.2-0.5-0.5-0.4c-0.7,0.1-1.3,0.5-1.6,1.2c-0.1,0.2-0.1,0.4-0.2,0.6c-0.6-0.7-1.3-1.3-2-1.8c0.9-0.5,2.5-1.2,4-0.7
					c0.8,0.3,1.4,1,1.7,1.7c0.1,0.4,0.2,1-0.3,1.6c-0.3,0.3-0.7,0.6-1.2,0.6c-0.4,0-0.8-0.1-1-0.4C37.2,15.2,37.1,14.8,37.3,14.3z
					 M40,9.5c2,1,2.5,3.1,2.6,4.7c0.1,0.9,0,1.8,0,2.7c0,1.3-0.1,2.7,0.1,4.1c0.3,1.5,0.9,2.7,1.7,3.4c-1,0-3,0-3.7-0.6
					c-0.5-0.4-0.9-1.2-0.5-1.8c0.1-0.2,0.4-0.4,0.6-0.4c0.2,0,0.5,0,0.7,0.2c0.4,0.3,0.2,0.7,0.2,0.8c-0.1,0.2,0,0.5,0.2,0.6
					c0.2,0.1,0.5,0,0.6-0.2c0.4-0.7,0.2-1.5-0.4-2c-0.4-0.3-0.9-0.4-1.4-0.3c-0.3,0.1-0.6,0.2-0.9,0.4c-0.4-1.5-1-2.9-1.8-4.2
					c0.1,0,0.3,0,0.4,0c0,0,0,0,0,0c0.8,0,1.5-0.4,1.9-0.9c0.6-0.7,0.7-1.6,0.5-2.4c-0.3-1.1-1.2-2-2.3-2.4c-2.2-0.8-4.3,0.4-5.2,1
					c-0.4-0.3-0.9-0.6-1.4-0.8C33.9,9.8,36.9,7.9,40,9.5z M23.1,4.1c-0.2-0.2-0.4-0.4-0.4-0.7c0-0.4,0.4-0.7,1-1.2
					c0.4-0.3,0.8-0.5,1.1-0.9C25.2,1.7,25.6,2,26,2.3C26.6,2.7,27,3,27,3.4c0,0.3-0.2,0.5-0.4,0.7c0,0,0,0,0,0
					c-0.5,0.2-1,0.5-1.4,0.9c-0.1,0.2-0.2,0.4-0.3,0.6c-0.1-0.2-0.2-0.4-0.3-0.6C24.2,4.6,23.6,4.3,23.1,4.1z M6.9,21
					c0.2-1.4,0.2-2.8,0.1-4.1c0-0.9-0.1-1.8,0-2.7c0.1-1.6,0.6-3.6,2.6-4.7c3-1.6,6.1,0.3,7.9,1.8c-0.5,0.2-0.9,0.5-1.4,0.8
					c-0.9-0.6-3-1.7-5.1-1c-1.1,0.4-2,1.3-2.3,2.4c-0.2,0.9-0.1,1.7,0.5,2.4c0.4,0.6,1.2,0.9,1.9,0.9c0,0,0,0,0,0c0.1,0,0.2,0,0.3,0
					c-0.8,1.3-1.3,2.7-1.7,4.1c-0.2-0.2-0.5-0.3-0.8-0.4c-0.5-0.1-1,0-1.4,0.3c-0.6,0.5-0.8,1.3-0.4,2c0.1,0.2,0.4,0.3,0.6,0.2
					c0.2-0.1,0.3-0.4,0.2-0.6C8,22.4,7.8,22,8.2,21.7c0.2-0.1,0.4-0.2,0.7-0.2c0.3,0,0.5,0.2,0.6,0.4c0.4,0.6,0,1.4-0.5,1.8
					c-0.8,0.6-2.8,0.6-3.7,0.6C6.1,23.6,6.7,22.5,6.9,21z M9.7,40.3c-2-1-2.5-3.1-2.6-4.7c-0.1-0.9,0-1.8,0-2.7
					c0-1.3,0.1-2.7-0.1-4.1c-0.3-1.5-0.9-2.7-1.7-3.4c1,0,3,0,3.7,0.6c0.5,0.4,0.9,1.2,0.5,1.8c-0.1,0.2-0.4,0.4-0.6,0.4
					c-0.2,0-0.5,0-0.7-0.2C7.8,27.7,8,27.3,8,27.2c0.1-0.2,0-0.5-0.2-0.6c-0.2-0.1-0.5,0-0.6,0.2c-0.4,0.7-0.2,1.5,0.4,2
					c0.3,0.2,0.7,0.4,1.1,0.4c0.1,0,0.2,0,0.3,0c0.3-0.1,0.6-0.2,0.9-0.4c0.4,1.5,1,2.9,1.7,4.2c-0.1,0-0.3,0-0.4,0
					c-0.8,0-1.5,0.4-1.9,0.9c-0.6,0.7-0.7,1.6-0.5,2.4c0.3,1.1,1.2,2,2.3,2.4c0.5,0.2,1,0.3,1.5,0.3c1.6,0,3-0.8,3.7-1.2
					c0.4,0.3,0.9,0.6,1.4,0.8C15.8,40,12.8,41.9,9.7,40.3z M26.5,45.7C26.5,45.7,26.5,45.7,26.5,45.7c0.3,0.2,0.5,0.4,0.5,0.8
					c0,0.4-0.4,0.7-1,1.2c-0.4,0.3-0.8,0.5-1.1,0.9c-0.3-0.4-0.7-0.6-1.1-0.9c-0.7-0.4-1.1-0.7-1-1.1c0-0.3,0.2-0.5,0.4-0.7
					c0,0,0,0,0,0c0.6-0.2,1.1-0.5,1.4-0.9c0.1-0.2,0.2-0.4,0.3-0.6c0.1,0.2,0.2,0.4,0.3,0.6C25.5,45.2,26,45.5,26.5,45.7z
					 M42.8,28.8c-0.2,1.4-0.2,2.8-0.1,4.1c0,0.9,0.1,1.8,0,2.7c-0.1,1.6-0.6,3.6-2.6,4.7c-3,1.6-6.1-0.3-7.9-1.9
					c0.5-0.2,0.9-0.5,1.4-0.8c0.7,0.4,2.1,1.2,3.7,1.2c0.5,0,1-0.1,1.5-0.3c1.1-0.4,2-1.3,2.3-2.4c0.2-0.9,0.1-1.7-0.5-2.4
					c-0.4-0.6-1.2-0.9-1.9-0.9c-0.2,0-0.3,0-0.4,0c0.8-1.3,1.4-2.7,1.8-4.2c0.2,0.2,0.6,0.4,0.9,0.4c0.1,0,0.2,0,0.3,0
					c0.4,0,0.8-0.1,1.1-0.4c0.6-0.5,0.8-1.3,0.4-2c-0.1-0.2-0.4-0.3-0.6-0.2c-0.2,0.1-0.3,0.4-0.2,0.6c0.1,0.1,0.2,0.5-0.2,0.8
					c-0.2,0.1-0.4,0.2-0.7,0.2c-0.3,0-0.5-0.2-0.6-0.4c-0.1-0.2-0.1-0.3-0.2-0.5c0-0.2,0.1-0.3,0.1-0.5c0.1-0.3,0.3-0.6,0.6-0.8
					c0.8-0.6,2.8-0.6,3.7-0.6C43.6,26.2,43,27.3,42.8,28.8z"/>
			</g>
		</g>
	</g>
	<g>
		<path class="st4" d="M64.2,16.5c-0.2-0.4-0.1-0.6,0.4-0.7c3.1-0.3,5.8-1.9,8.4-2c1.9-0.1,3.5,0.5,4.4,3.1c0.8,2.2,0.1,4.4-1.1,6.3
			c-1.8,2.9-5.8,5.7-10.7,6.6c-0.8,0.1-1.7,0-2.3-0.4c-1,2-2.1,4.5-3.4,7.5c-0.1,0.4-0.3,0.4-0.6,0.1c-0.5-0.6-0.9-1.7-0.3-3.7
			c1-3.4,4.4-10.3,7.6-15.4C65.3,17.9,64.6,17.2,64.2,16.5z M75.7,17.2c-0.8-2-4.5-0.1-6.9,0.6c0,1-0.4,2.3-1.4,4.1
			c-1,1.7-2,3.4-3.1,5.5C72.6,25.8,76.7,19.8,75.7,17.2z"/>
		<path class="st4" d="M82.2,38.2c-2.1,5-4.7,10.9-7.8,12.1c-0.7,0.3-1.4,0.3-2.1-0.8c-0.7-1.1-1.5-2.4-0.7-4.6
			c1.1-3.3,4.2-5.5,7.9-7c0.4-0.8,0.7-1.8,1.1-2.7c-1.1,1.2-2.6,2.1-4,2c-2.7-0.2-2.7-2.9-1.9-5.4c0.8-2.4,2.6-6,5-9.4
			c0.3-0.4,0.7-0.4,0.9,0c0.9,1.2,0.7,2.7-0.7,4.9c-1.3,2.1-2.1,3.7-2.8,5.4c-0.7,1.8-0.7,3.1,0.2,3.2c1.4,0.1,3.3-2.3,5.2-5.5
			c1.6-2.7,3.2-6.1,4.5-7.9c0.3-0.5,0.6-0.6,0.9-0.3c0.5,0.7,0.8,2.3-0.1,4.1c-1.1,2.1-3.4,6.6-4.9,10.2c2.9-1.6,5.1-3.7,6.5-5.7
			c0.2-0.3,0.5-0.3,0.6,0.1c0.1,0.3,0,1.2-0.7,2.1C87.9,35.5,85.3,36.9,82.2,38.2z M73.1,48.2c0.5,0.7,3.5-3.3,5.8-8.8
			C74.1,42.3,72.4,47.3,73.1,48.2z"/>
		<path class="st4" d="M100.6,24.6c0.8,1.6-0.7,3.5-1.4,5.5c-0.1,0.4-0.3,0.6-0.8,0.3c-0.9-0.4-1.4-1.6-0.9-3.2
			c0.4-1.3,1.5-2.9,1-3.3c-0.6-0.5-3.4,1.8-5.1,5.2c-2,4.2-1.3,7.2,0.9,7.3c3.1,0,5.8-2.9,7.3-5.2c0.2-0.3,0.5-0.3,0.7,0
			c0.1,0.3,0,1.2-0.7,2.2c-1.4,2.2-4.3,4-7.1,4c-4.7,0.1-6.3-4.5-3.9-9.3c2.4-4.7,6.1-6.7,7.9-5.5C99.5,23.1,100.1,23.7,100.6,24.6z
			"/>
		<path class="st4" d="M116.4,31.2c0.2-0.3,0.4-0.3,0.6,0c0.3,0.4,0.2,1.3-0.3,2.3c-1,2.1-3.3,4-5.5,4c-3.4,0-4.6-2-1.4-8.5l-0.3,0
			c-3.1,6-5.5,8.4-7.5,8.4c-2.6,0-2.3-2.4-1.6-4.2c0.4-1.2,2.3-1.7,1.7-0.7c-0.9,1.7-1.1,3.8-0.2,3.8c1,0,2.8-2.2,6.7-8.3l3.9-6
			c0.4-0.5,1-0.6,1.3-0.2c0.6,0.7,0.6,2.1,0.1,3.4l-2.9,7.8c-0.9,2.2-0.7,3.4,0.7,3.3C113.2,36.3,115,33.8,116.4,31.2z"/>
		<path class="st4" d="M128.5,22.6c0.3-0.5,0.6-0.6,0.9-0.2c0.6,0.7,0.9,2.3,0,4.1c-0.8,1.7-2.7,4.4-3.5,6.4c-0.9,2.1-1,3.7,0.3,3.6
			c1.5-0.1,3.5-2.6,4.8-5.1c0.2-0.3,0.4-0.4,0.6,0c0.1,0.3,0.1,1.3-0.3,2.3c-1,2-3.3,4.1-5.3,4c-2-0.1-3-1.3-3-3
			c-1.2,1.5-2.8,2.9-4.6,2.9c-3.4,0-4.1-4.7-1.1-9.2c3-4.4,5.9-6,7.8-6c1.6,0,2.3,1.2,2.3,2.7C127.7,23.9,128.1,23.1,128.5,22.6z
			 M125.6,24.1c-1.2-0.1-3.9,2.3-5.9,5.6c-2,3.2-2.4,6.4-1,6.5c1.5,0,3.4-2.3,5.3-5.6C126.3,26.5,126.6,24.2,125.6,24.1z"/>
		<path class="st4" d="M130.8,37c-0.1,0.3-0.4,0.5-0.7,0.1c-0.7-0.7-1-2-0.4-3.8c0.7-2.3,3.6-7.5,5.9-10.9c0.3-0.4,0.6-0.4,0.8,0
			c0.6,0.9,0.7,2.5,0,3.7C134.9,29,132.4,33.5,130.8,37z M140,29.4c-1.9,0.9-9.1,2-9.1,2c-1.1,0.2-0.7-1.4,0.5-1.7c0,0,7.2-1,8.9-2
			L140,29.4z M137.4,32c0.9-2.7,3.4-7.1,4.7-9c0.3-0.4,0.6-0.6,0.9-0.2c0.6,0.6,0.9,2.2,0,4c-0.8,1.6-2.3,4.1-3.1,6
			c-0.9,2.1-0.8,3.6,0.4,3.5c1.7-0.1,3.7-2.5,4.8-5.1c0.2-0.3,0.4-0.3,0.6,0c0.3,0.6,0.2,1.4-0.3,2.3c-1.1,2.3-3.4,3.8-5.5,3.8
			C137.1,37.4,136.4,35,137.4,32z"/>
	</g>
</g>
</svg>
