<?xml version="1.0" standalone="no"?>
<!DOCTYPE svg PUBLIC "-//W3C//DTD SVG 1.1//EN" "http://www.w3.org/Graphics/SVG/1.1/DTD/svg11.dtd" >
<svg xmlns="http://www.w3.org/2000/svg">
<metadata>Generated by IcoMoon</metadata>
<defs>
<font id="icomoon" horiz-adv-x="1024">
<font-face units-per-em="1024" ascent="960" descent="-64" />
<missing-glyph horiz-adv-x="1024" />
<glyph unicode="&#x20;" horiz-adv-x="512" d="" />
<glyph unicode="&#xe900;" glyph-name="add_circle" d="M512 874.667c-235.52 0-426.667-191.147-426.667-426.667s191.147-426.667 426.667-426.667 426.667 191.147 426.667 426.667-191.147 426.667-426.667 426.667zM682.667 405.333h-128v-128c0-23.467-19.2-42.667-42.667-42.667v0c-23.467 0-42.667 19.2-42.667 42.667v128h-128c-23.467 0-42.667 19.2-42.667 42.667v0c0 23.467 19.2 42.667 42.667 42.667h128v128c0 23.467 19.2 42.667 42.667 42.667v0c23.467 0 42.667-19.2 42.667-42.667v-128h128c23.467 0 42.667-19.2 42.667-42.667v0c0-23.467-19.2-42.667-42.667-42.667z" />
<glyph unicode="&#xe901;" glyph-name="add_circle_outline" d="M512 661.333v0c-23.467 0-42.667-19.2-42.667-42.667v-128h-128c-23.467 0-42.667-19.2-42.667-42.667v0c0-23.467 19.2-42.667 42.667-42.667h128v-128c0-23.467 19.2-42.667 42.667-42.667v0c23.467 0 42.667 19.2 42.667 42.667v128h128c23.467 0 42.667 19.2 42.667 42.667v0c0 23.467-19.2 42.667-42.667 42.667h-128v128c0 23.467-19.2 42.667-42.667 42.667zM512 874.667c-235.52 0-426.667-191.147-426.667-426.667s191.147-426.667 426.667-426.667 426.667 191.147 426.667 426.667-191.147 426.667-426.667 426.667zM512 106.667c-188.16 0-341.333 153.173-341.333 341.333s153.173 341.333 341.333 341.333 341.333-153.173 341.333-341.333-153.173-341.333-341.333-341.333z" />
<glyph unicode="&#xe902;" glyph-name="add_comment" d="M938.667 789.333c0 46.933-38.4 85.333-85.333 85.333h-682.667c-46.933 0-85.333-38.4-85.333-85.333v-512c0-46.933 38.4-85.333 85.333-85.333h597.333l170.667-170.667v768zM682.667 490.667h-128v-128c0-23.467-19.2-42.667-42.667-42.667v0c-23.467 0-42.667 19.2-42.667 42.667v128h-128c-23.467 0-42.667 19.2-42.667 42.667v0c0 23.467 19.2 42.667 42.667 42.667h128v128c0 23.467 19.2 42.667 42.667 42.667v0c23.467 0 42.667-19.2 42.667-42.667v-128h128c23.467 0 42.667-19.2 42.667-42.667v0c0-23.467-19.2-42.667-42.667-42.667z" />
<glyph unicode="&#xe903;" glyph-name="add_shopping_cart" d="M512 576v0c23.467 0 42.667 19.2 42.667 42.667v85.333h85.333c23.467 0 42.667 19.2 42.667 42.667v0c0 23.467-19.2 42.667-42.667 42.667h-85.333v85.333c0 23.467-19.2 42.667-42.667 42.667v0c-23.467 0-42.667-19.2-42.667-42.667v-85.333h-85.333c-23.467 0-42.667-19.2-42.667-42.667v0c0-23.467 19.2-42.667 42.667-42.667h85.333v-85.333c0-23.467 19.2-42.667 42.667-42.667zM298.667 192c-46.933 0-84.907-38.4-84.907-85.333s37.973-85.333 84.907-85.333 85.333 38.4 85.333 85.333-38.4 85.333-85.333 85.333zM725.333 192c-46.933 0-84.907-38.4-84.907-85.333s37.973-85.333 84.907-85.333 85.333 38.4 85.333 85.333-38.4 85.333-85.333 85.333zM345.6 405.333h317.867c32 0 60.16 17.493 74.667 43.947l144.213 261.547c11.52 20.48 3.84 46.507-16.64 58.027v0c-20.48 11.093-46.507 3.84-57.6-16.64l-144.64-261.547h-299.52l-170.24 359.68c-6.827 14.933-22.187 24.32-38.4 24.32h-69.973c-23.467 0-42.667-19.2-42.667-42.667v0c0-23.467 19.2-42.667 42.667-42.667h42.667l153.6-323.84-57.6-104.107c-31.147-57.173 9.813-126.72 74.667-126.72h469.333c23.467 0 42.667 19.2 42.667 42.667v0c0 23.467-19.2 42.667-42.667 42.667h-469.333l46.933 85.333z" />
<glyph unicode="&#xe904;" glyph-name="arrow_back" d="M810.667 490.667h-476.587l208.213 208.213c16.64 16.64 16.64 43.947 0 60.587v0c-16.64 16.64-43.52 16.64-60.16 0l-281.173-281.173c-16.64-16.64-16.64-43.52 0-60.16l281.173-281.173c16.64-16.64 43.52-16.64 60.16 0v0c16.64 16.64 16.64 43.52 0 60.16l-208.213 208.213h476.587c23.467 0 42.667 19.2 42.667 42.667v0c0 23.467-19.2 42.667-42.667 42.667z" />
<glyph unicode="&#xe905;" glyph-name="arrow_drop_down" d="M371.627 460.373l110.507-110.507c16.64-16.64 43.52-16.64 60.16 0l110.507 110.507c26.88 26.88 7.68 72.96-30.293 72.96h-221.013c-37.973 0-56.747-46.080-29.867-72.96z" />
<glyph unicode="&#xe906;" glyph-name="arrow_drop_up" d="M371.627 435.627l110.507 110.507c16.64 16.64 43.52 16.64 60.16 0l110.507-110.507c26.88-26.88 7.68-72.96-30.293-72.96h-221.013c-37.973 0-56.747 46.080-29.867 72.96z" />
<glyph unicode="&#xe907;" glyph-name="arrow_forward" d="M213.333 405.333h476.587l-208.213-208.213c-16.64-16.64-16.64-43.947 0-60.587v0c16.64-16.64 43.52-16.64 60.16 0l281.173 281.173c16.64 16.64 16.64 43.52 0 60.16l-280.747 281.6c-16.64 16.64-43.52 16.64-60.16 0v0c-16.64-16.64-16.64-43.52 0-60.16l207.787-208.64h-476.587c-23.467 0-42.667-19.2-42.667-42.667v0c0-23.467 19.2-42.667 42.667-42.667z" />
<glyph unicode="&#xe908;" glyph-name="check_box" d="M810.667 832h-597.333c-46.933 0-85.333-38.4-85.333-85.333v-597.333c0-46.933 38.4-85.333 85.333-85.333h597.333c46.933 0 85.333 38.4 85.333 85.333v597.333c0 46.933-38.4 85.333-85.333 85.333zM456.96 264.96c-16.64-16.64-43.52-16.64-60.16 0l-153.173 153.173c-16.64 16.64-16.64 43.52 0 60.16v0c16.64 16.64 43.52 16.64 60.16 0l122.88-122.88 293.547 293.547c16.64 16.64 43.52 16.64 60.16 0v0c16.64-16.64 16.64-43.52 0-60.16l-323.413-323.84z" />
<glyph unicode="&#xe909;" glyph-name="check_box_outline_blank" d="M768 149.333h-512c-23.467 0-42.667 19.2-42.667 42.667v512c0 23.467 19.2 42.667 42.667 42.667h512c23.467 0 42.667-19.2 42.667-42.667v-512c0-23.467-19.2-42.667-42.667-42.667zM810.667 832h-597.333c-46.933 0-85.333-38.4-85.333-85.333v-597.333c0-46.933 38.4-85.333 85.333-85.333h597.333c46.933 0 85.333 38.4 85.333 85.333v597.333c0 46.933-38.4 85.333-85.333 85.333v0z" />
<glyph unicode="&#xe90a;" glyph-name="favorite" d="M569.6 101.12c-32.427-29.44-82.347-29.44-114.773 0.427l-4.693 4.267c-224 202.667-370.347 335.36-364.8 500.907 2.56 72.533 39.68 142.080 99.84 183.040 112.64 76.8 251.733 40.96 326.827-46.933 75.093 87.893 214.187 124.16 326.827 46.933 60.16-40.96 97.28-110.507 99.84-183.040 5.973-165.547-140.8-298.24-364.8-501.76l-4.267-3.84z" />
<glyph unicode="&#xe90b;" glyph-name="favorite_border" d="M838.827 789.76c-112.64 76.8-251.733 40.96-326.827-46.933-75.093 87.893-214.187 124.16-326.827 46.933-59.733-40.96-97.28-110.080-99.84-183.040-5.973-165.547 140.8-298.24 364.8-501.76l4.267-3.84c32.427-29.44 82.347-29.44 114.773 0.427l4.693 4.267c224 203.093 370.347 335.787 364.8 501.333-2.56 72.533-40.107 141.653-99.84 182.613zM516.267 168.533l-4.267-4.267-4.267 4.267c-203.093 183.893-337.067 305.493-337.067 428.8 0 85.333 64 149.333 149.333 149.333 65.707 0 129.707-42.24 152.32-100.693h79.787c22.187 58.453 86.187 100.693 151.893 100.693 85.333 0 149.333-64 149.333-149.333 0-123.307-133.973-244.907-337.067-428.8z" />
<glyph unicode="&#xe90c;" glyph-name="highlight_off" d="M592.64 588.8l-80.64-80.64-80.64 80.64c-16.64 16.64-43.52 16.64-60.16 0v0c-16.64-16.64-16.64-43.52 0-60.16l80.64-80.64-80.64-80.64c-16.64-16.64-16.64-43.52 0-60.16v0c16.64-16.64 43.52-16.64 60.16 0l80.64 80.64 80.64-80.64c16.64-16.64 43.52-16.64 60.16 0v0c16.64 16.64 16.64 43.52 0 60.16l-80.64 80.64 80.64 80.64c16.64 16.64 16.64 43.52 0 60.16v0c-16.64 16.213-43.947 16.213-60.16 0zM512 874.667c-235.947 0-426.667-190.72-426.667-426.667s190.72-426.667 426.667-426.667 426.667 190.72 426.667 426.667-190.72 426.667-426.667 426.667zM512 106.667c-188.16 0-341.333 153.173-341.333 341.333s153.173 341.333 341.333 341.333 341.333-153.173 341.333-341.333-153.173-341.333-341.333-341.333z" />
<glyph unicode="&#xe90d;" glyph-name="how_to_reg" d="M512 106.667l-36.693 36.693c-50.347 50.347-49.92 132.267 0.853 181.76l35.84 34.987c-16.64 1.707-29.013 2.56-42.667 2.56-113.92 0-341.333-57.173-341.333-170.667v-85.333h384zM469.333 448c94.293 0 170.667 76.373 170.667 170.667s-76.373 170.667-170.667 170.667-170.667-76.373-170.667-170.667 76.373-170.667 170.667-170.667zM690.347 116.053c-16.64-16.64-43.947-16.64-60.587 0l-88.32 89.173c-16.213 16.64-16.213 43.093 0 59.307l0.427 0.427c16.64 16.64 43.52 16.64 59.733 0l58.453-58.453 189.013 190.293c16.64 16.64 43.52 16.64 60.16 0l0.427-0.427c16.213-16.64 16.213-43.093 0-59.307l-219.307-221.013z" />
<glyph unicode="&#xe90e;" glyph-name="keyboard_arrow_left" d="M627.627 282.453l-165.547 165.547 165.547 165.547c16.64 16.64 16.64 43.52 0 60.16v0c-16.64 16.64-43.52 16.64-60.16 0l-195.84-195.84c-16.64-16.64-16.64-43.52 0-60.16l195.84-195.84c16.64-16.64 43.52-16.64 60.16 0v0c16.213 16.64 16.64 43.947 0 60.587z" />
<glyph unicode="&#xe90f;" glyph-name="keyboard_arrow_right" d="M396.373 282.453l165.547 165.547-165.547 165.547c-16.64 16.64-16.64 43.52 0 60.16v0c16.64 16.64 43.52 16.64 60.16 0l195.84-195.84c16.64-16.64 16.64-43.52 0-60.16l-195.84-195.84c-16.64-16.64-43.52-16.64-60.16 0v0c-16.213 16.64-16.64 43.947 0 60.587z" />
<glyph unicode="&#xe910;" glyph-name="keyboard_backspace" d="M853.333 490.667h-561.92l122.88 122.88c16.64 16.64 16.64 43.52 0 60.16v0c-16.64 16.64-43.52 16.64-60.16 0l-195.84-195.84c-16.64-16.64-16.64-43.52 0-60.16l195.84-195.84c16.64-16.64 43.52-16.64 60.16 0v0c16.64 16.64 16.64 43.52 0 60.16l-122.88 123.307h561.92c23.467 0 42.667 19.2 42.667 42.667v0c0 23.467-19.2 42.667-42.667 42.667z" />
<glyph unicode="&#xe911;" glyph-name="local_mall" d="M810.667 704h-85.333c0 117.76-95.573 213.333-213.333 213.333s-213.333-95.573-213.333-213.333h-85.333c-46.933 0-85.333-38.4-85.333-85.333v-512c0-46.933 38.4-85.333 85.333-85.333h597.333c46.933 0 85.333 38.4 85.333 85.333v512c0 46.933-38.4 85.333-85.333 85.333zM512 832c70.827 0 128-57.173 128-128h-256c0 70.827 57.173 128 128 128zM512 405.333c-99.413 0-183.040 67.84-206.507 160-7.253 26.88 13.653 53.333 41.387 53.333v0c20.053 0 36.267-14.507 41.813-34.133 14.933-54.187 64.427-93.867 123.307-93.867s108.373 39.68 123.307 93.867c5.547 19.627 21.76 34.133 41.813 34.133v0c27.733 0 48.213-26.453 41.387-53.333-23.467-92.16-107.093-160-206.507-160z" />
<glyph unicode="&#xe912;" glyph-name="local_shipping" d="M832 618.667h-106.667v85.333c0 46.933-38.4 85.333-85.333 85.333h-512c-46.933 0-85.333-38.4-85.333-85.333v-384c0-46.933 38.4-85.333 85.333-85.333v0c0-70.827 57.173-128 128-128s128 57.173 128 128h256c0-70.827 57.173-128 128-128s128 57.173 128 128h42.667c23.467 0 42.667 19.2 42.667 42.667v142.080c0 18.347-5.973 36.267-17.067 51.2l-98.133 130.987c-8.107 10.667-20.907 17.067-34.133 17.067zM256 192c-23.467 0-42.667 19.2-42.667 42.667s19.2 42.667 42.667 42.667 42.667-19.2 42.667-42.667-19.2-42.667-42.667-42.667zM832 554.667l83.627-106.667h-190.293v106.667h106.667zM768 192c-23.467 0-42.667 19.2-42.667 42.667s19.2 42.667 42.667 42.667 42.667-19.2 42.667-42.667-19.2-42.667-42.667-42.667z" />
<glyph unicode="&#xe913;" glyph-name="location_on" d="M512 874.667c-165.12 0-298.667-133.547-298.667-298.667 0-177.92 188.587-423.253 266.24-516.693 17.067-20.48 48.213-20.48 65.28 0 77.227 93.44 265.813 338.773 265.813 516.693 0 165.12-133.547 298.667-298.667 298.667zM512 469.333c-58.88 0-106.667 47.787-106.667 106.667s47.787 106.667 106.667 106.667 106.667-47.787 106.667-106.667-47.787-106.667-106.667-106.667z" />
<glyph unicode="&#xe914;" glyph-name="mail" d="M853.333 789.333h-682.667c-46.933 0-85.333-38.4-85.333-85.333v-512c0-46.933 38.4-85.333 85.333-85.333h682.667c46.933 0 85.333 38.4 85.333 85.333v512c0 46.933-38.4 85.333-85.333 85.333zM836.267 608l-279.040-174.507c-27.733-17.493-62.72-17.493-90.453 0l-279.040 174.507c-10.667 6.827-17.067 18.347-17.067 30.72 0 28.587 31.147 45.653 55.467 30.72l285.867-178.773 285.867 178.773c24.32 14.933 55.467-2.133 55.467-30.72 0-12.373-6.4-23.893-17.067-30.72z" />
<glyph unicode="&#xe915;" glyph-name="phone" d="M820.48 308.907l-108.373 12.373c-26.027 2.987-51.627-5.973-69.973-24.32l-78.507-78.507c-120.747 61.44-219.733 160-281.173 281.173l78.933 78.933c18.347 18.347 27.307 43.947 24.32 69.973l-12.373 107.52c-5.12 43.093-41.387 75.52-84.907 75.52h-73.813c-48.213 0-88.32-40.107-85.333-88.32 22.613-364.373 314.027-655.36 677.973-677.973 48.213-2.987 88.32 37.12 88.32 85.333v73.813c0.427 43.093-32 79.36-75.093 84.48z" />
<glyph unicode="&#xe916;" glyph-name="rate_review" d="M853.333 874.667h-682.667c-46.933 0-85.333-38.4-85.333-85.333v-768l170.667 170.667h597.333c46.933 0 85.333 38.4 85.333 85.333v512c0 46.933-38.4 85.333-85.333 85.333zM256 362.667v105.387l293.547 293.547c8.533 8.533 21.76 8.533 30.293 0l75.52-75.52c8.533-8.533 8.533-21.76 0-30.293l-293.973-293.12h-105.387zM725.333 362.667h-277.333l85.333 85.333h192c23.467 0 42.667-19.2 42.667-42.667v0c0-23.467-19.2-42.667-42.667-42.667z" />
<glyph unicode="&#xe917;" glyph-name="remove_circle" d="M512 874.667c-235.52 0-426.667-191.147-426.667-426.667s191.147-426.667 426.667-426.667 426.667 191.147 426.667 426.667-191.147 426.667-426.667 426.667zM682.667 405.333h-341.333c-23.467 0-42.667 19.2-42.667 42.667v0c0 23.467 19.2 42.667 42.667 42.667h341.333c23.467 0 42.667-19.2 42.667-42.667v0c0-23.467-19.2-42.667-42.667-42.667z" />
<glyph unicode="&#xe918;" glyph-name="remove_circle_outline" d="M298.667 448v0c0-23.467 19.2-42.667 42.667-42.667h341.333c23.467 0 42.667 19.2 42.667 42.667v0c0 23.467-19.2 42.667-42.667 42.667h-341.333c-23.467 0-42.667-19.2-42.667-42.667zM512 874.667c-235.52 0-426.667-191.147-426.667-426.667s191.147-426.667 426.667-426.667 426.667 191.147 426.667 426.667-191.147 426.667-426.667 426.667zM512 106.667c-188.16 0-341.333 153.173-341.333 341.333s153.173 341.333 341.333 341.333 341.333-153.173 341.333-341.333-153.173-341.333-341.333-341.333z" />
<glyph unicode="&#xe919;" glyph-name="remove_shopping_cart" d="M30.293 881.92v0c-16.64-16.64-16.64-43.52 0-60.16l157.013-157.013 94.293-198.827-57.6-104.533c-8.107-14.080-11.947-31.147-10.24-49.067 4.267-45.227 45.227-77.653 90.453-77.653h312.747l58.88-58.88c-21.333-15.36-35.413-40.533-35.413-69.12 0-46.933 37.973-85.333 84.907-85.333 28.587 0 53.76 14.080 69.12 35.84l90.88-90.88c16.64-16.64 43.52-16.64 60.16 0v0c16.64 16.64 16.64 43.52 0 60.16l-855.040 855.467c-16.64 16.64-43.52 16.64-60.16 0zM298.667 320l46.933 85.333h100.693l85.333-85.333h-232.96zM684.8 407.893c23.040 5.973 42.24 20.907 53.333 41.387l152.747 276.907c15.787 28.16-5.12 63.147-37.547 63.147h-549.547l381.013-381.44zM298.667 192c-46.933 0-84.907-38.4-84.907-85.333s37.973-85.333 84.907-85.333c46.933 0 85.333 38.4 85.333 85.333s-38.4 85.333-85.333 85.333z" />
<glyph unicode="&#xe91a;" glyph-name="search" d="M661.333 362.667h-33.707l-11.947 11.52c51.2 59.733 77.653 141.227 63.147 227.84-20.053 118.613-119.040 213.333-238.507 227.84-180.48 22.187-332.373-129.707-310.187-310.187 14.507-119.467 109.227-218.453 227.84-238.507 86.613-14.507 168.107 11.947 227.84 63.147l11.52-11.947v-33.707l181.333-181.333c17.493-17.493 46.080-17.493 63.573 0v0c17.493 17.493 17.493 46.080 0 63.573l-180.907 181.76zM405.333 362.667c-106.24 0-192 85.76-192 192s85.76 192 192 192 192-85.76 192-192-85.76-192-192-192z" />
<glyph unicode="&#xe91b;" glyph-name="shopping_cart" d="M298.667 192c-46.933 0-84.907-38.4-84.907-85.333s37.973-85.333 84.907-85.333 85.333 38.4 85.333 85.333-38.4 85.333-85.333 85.333zM42.667 832v0c0-23.467 19.2-42.667 42.667-42.667h42.667l153.6-323.84-57.6-104.107c-31.147-57.173 9.813-126.72 74.667-126.72h469.333c23.467 0 42.667 19.2 42.667 42.667v0c0 23.467-19.2 42.667-42.667 42.667h-469.333l46.933 85.333h317.867c32 0 60.16 17.493 74.667 43.947l152.747 276.907c15.787 28.16-4.693 63.147-37.12 63.147h-631.467l-28.587 61.013c-6.827 14.933-22.187 24.32-38.4 24.32h-69.973c-23.467 0-42.667-19.2-42.667-42.667zM725.333 192c-46.933 0-84.907-38.4-84.907-85.333s37.973-85.333 84.907-85.333 85.333 38.4 85.333 85.333-38.4 85.333-85.333 85.333z" />
<glyph unicode="&#xe91c;" glyph-name="turned_in" d="M725.333 832h-426.667c-46.933 0-84.907-38.4-84.907-85.333l-0.427-682.667 298.667 128 298.667-128v682.667c0 46.933-38.4 85.333-85.333 85.333z" />
<glyph unicode="&#xe91d;" glyph-name="turned_in_not" d="M725.333 832h-426.667c-46.933 0-84.907-38.4-84.907-85.333l-0.427-682.667 298.667 128 298.667-128v682.667c0 46.933-38.4 85.333-85.333 85.333zM725.333 192l-213.333 93.013-213.333-93.013v512c0 23.467 19.2 42.667 42.667 42.667h341.333c23.467 0 42.667-19.2 42.667-42.667v-512z" />
<glyph unicode="&#xe91e;" glyph-name="zoom_in" d="M661.333 362.667h-33.707l-11.947 11.52c51.2 59.733 77.653 141.227 63.147 227.84-20.053 118.613-119.040 213.333-238.507 227.84-180.48 22.187-331.947-129.707-310.187-310.187 14.507-119.467 109.227-218.453 227.84-238.507 86.613-14.507 168.107 11.947 227.84 63.147l11.52-11.947v-33.707l181.76-181.333c17.493-17.493 45.653-17.493 63.147 0l0.427 0.427c17.493 17.493 17.493 45.653 0 63.147l-181.333 181.76zM405.333 362.667c-106.24 0-192 85.76-192 192s85.76 192 192 192 192-85.76 192-192-85.76-192-192-192zM405.333 661.333v0c-11.947 0-21.333-9.387-21.333-21.333v-64h-64c-11.947 0-21.333-9.387-21.333-21.333v0c0-11.947 9.387-21.333 21.333-21.333h64v-64c0-11.947 9.387-21.333 21.333-21.333v0c11.947 0 21.333 9.387 21.333 21.333v64h64c11.947 0 21.333 9.387 21.333 21.333v0c0 11.947-9.387 21.333-21.333 21.333h-64v64c0 11.947-9.387 21.333-21.333 21.333z" />
<glyph unicode="&#xe91f;" glyph-name="zoom_out" d="M661.333 362.667h-33.707l-11.947 11.52c51.2 59.733 77.653 141.227 63.147 227.84-20.053 118.613-119.040 213.333-238.507 227.84-180.48 22.187-332.373-129.707-310.187-310.187 14.507-119.467 109.227-218.453 227.84-238.507 86.613-14.507 168.107 11.947 227.84 63.147l11.52-11.947v-33.707l181.76-181.333c17.493-17.493 45.653-17.493 63.147 0l0.427 0.427c17.493 17.493 17.493 45.653 0 63.147l-181.333 181.76zM405.333 362.667c-106.24 0-192 85.76-192 192s85.76 192 192 192 192-85.76 192-192-85.76-192-192-192zM320 576h170.667c11.947 0 21.333-9.387 21.333-21.333v0c0-11.947-9.387-21.333-21.333-21.333h-170.667c-11.947 0-21.333 9.387-21.333 21.333v0c0 11.947 9.387 21.333 21.333 21.333z" />
</font>
</defs>
</svg>
